<svg width="16" height="17" viewBox="0 0 16 17" fill="none" xmlns="http://www.w3.org/2000/svg">
<path d="M0.650449 14.39C0.2597 14.7807 0.248207 15.4473 0.650449 15.8496C1.0412 16.2518 1.70777 16.2403 2.11001 15.8496L7.99424 9.95384L13.89 15.8496C14.2807 16.2403 14.9473 16.2518 15.338 15.8496C15.7518 15.4473 15.7403 14.7807 15.338 14.39L9.4538 8.49428L15.338 2.61005C15.7403 2.2193 15.7518 1.54123 15.338 1.15049C14.9473 0.748243 14.2807 0.759736 13.89 1.15049L7.99424 7.04621L2.11001 1.15049C1.70777 0.759736 1.0412 0.748243 0.650449 1.15049C0.248207 1.54123 0.2597 2.2193 0.650449 2.61005L6.53468 8.49428L0.650449 14.39Z" fill="#1565C0"/>
<path fill-rule="evenodd" clip-rule="evenodd" d="M2.11001 15.8496C1.70777 16.2403 1.0412 16.2518 0.650449 15.8496C0.248207 15.4473 0.2597 14.7807 0.650449 14.39L6.53468 8.49428L0.650449 2.61005C0.2597 2.2193 0.248207 1.54123 0.650449 1.15049C1.0412 0.748243 1.70777 0.759736 2.11001 1.15049L7.99424 7.04621L13.89 1.15049C14.2807 0.759736 14.9473 0.748243 15.338 1.15049C15.7518 1.54123 15.7403 2.2193 15.338 2.61005L9.4538 8.49428L15.338 14.39C15.7403 14.7807 15.7518 15.4473 15.338 15.8496C14.9473 16.2518 14.2807 16.2403 13.89 15.8496L7.99424 9.95384L2.11001 15.8496ZM7.99448 10.4534L2.35605 16.1028C1.82414 16.6195 0.934956 16.647 0.399013 16.0974C-0.141816 15.5546 -0.124692 14.6658 0.400803 14.1403L6.03563 8.49452L0.400803 2.8597C-0.122047 2.33685 -0.145023 1.43515 0.400778 0.900825C0.936907 0.353097 1.82469 0.381101 2.35602 0.897247L2.35993 0.901052L7.99448 6.54667L13.6403 0.900838C14.1626 0.378579 15.0515 0.355035 15.586 0.899054C16.1455 1.43358 16.1226 2.33792 15.586 2.86135L9.95285 8.49452L15.5861 14.1387C16.1253 14.6648 16.1422 15.5562 15.5878 16.0992C15.0535 16.6451 14.1632 16.622 13.6403 16.0992L7.99448 10.4534Z" fill="#1565C0"/>
</svg>
