<svg width="32" height="32" viewBox="0 0 32 32" fill="none" xmlns="http://www.w3.org/2000/svg">
<path fill-rule="evenodd" clip-rule="evenodd" d="M19.9053 10.2463C20.0631 10.0886 20.277 10 20.5 10C20.6105 10 20.7198 10.0218 20.8218 10.064C20.9239 10.1063 21.0166 10.1682 21.0947 10.2463C21.1728 10.3244 21.2347 10.4171 21.277 10.5192C21.3193 10.6212 21.341 10.7305 21.341 10.841C21.341 10.9514 21.3193 11.0608 21.277 11.1628C21.2347 11.2649 21.1728 11.3576 21.0947 11.4357L11.8666 20.6638L10.2808 21.0602L10.6772 19.4744L19.9053 10.2463ZM20.5 8.5C19.8791 8.5 19.2837 8.74664 18.8447 9.18566L9.46969 18.5607C9.37357 18.6568 9.30538 18.7772 9.27241 18.9091L8.52241 21.9091C8.45851 22.1647 8.5334 22.435 8.71969 22.6213C8.90597 22.8076 9.17634 22.8825 9.43192 22.8186L12.4319 22.0686C12.5638 22.0356 12.6842 21.9674 12.7803 21.8713L22.1553 12.4963C22.3727 12.2789 22.5452 12.0209 22.6628 11.7368C22.7805 11.4528 22.841 11.1484 22.841 10.841C22.841 10.5336 22.7805 10.2292 22.6628 9.94513C22.5452 9.66111 22.3727 9.40304 22.1553 9.18566C21.938 8.96828 21.6799 8.79584 21.3959 8.6782C21.1119 8.56055 20.8074 8.5 20.5 8.5ZM16 21.341C15.5858 21.341 15.25 21.6768 15.25 22.091C15.25 22.5052 15.5858 22.841 16 22.841H22.75C23.1642 22.841 23.5 22.5052 23.5 22.091C23.5 21.6768 23.1642 21.341 22.75 21.341H16Z" fill="#1565C0"/>
</svg>
