<svg width="96" height="96" viewBox="0 0 128 96" fill="none" xmlns="http://www.w3.org/2000/svg">
    <g filter="url(#filter0_f_0_1)">
        <ellipse cx="64.0001" cy="44.6944" rx="31.0851" ry="30.8888" transform="rotate(-27.2526 64.0001 44.6944)" fill="#2962FF"/>
    </g>
    <g style="mix-blend-mode:plus-lighter" filter="url(#filter1_f_0_1)">
        <ellipse cx="79" cy="31" rx="9" ry="8" fill="#5F6DFF"/>
    </g>
    <path d="M94.364 45.8888C94.364 62.6692 80.6736 76.2777 63.7789 76.2777C46.8843 76.2777 33.1938 62.6692 33.1938 45.8888C33.1938 29.1085 46.8843 15.5 63.7789 15.5C80.6736 15.5 94.364 29.1085 94.364 45.8888Z" stroke="white"/>
    <path d="M53.2135 39.3168C53.3151 39.3331 53.4205 39.3368 53.5246 39.3381C54.1217 39.3393 54.7189 39.3381 55.3348 39.3381C55.3348 39.4058 55.3348 39.4673 55.3348 39.5287C55.336 40.1383 55.3285 40.7466 55.3436 41.3562C55.3524 41.7463 55.6685 42.0247 56.0398 42.0009C56.3747 41.9795 56.6457 41.6936 56.6545 41.3286C56.667 40.8344 56.662 40.339 56.6645 39.8448C56.6645 39.6792 56.6645 39.5137 56.6645 39.3393C57.2905 39.3393 57.8939 39.3393 58.4973 39.3393C58.6014 39.3393 58.7068 39.3356 58.8084 39.3143C59.1609 39.244 59.3766 38.9279 59.3214 38.5742C59.2675 38.223 59.0116 38.0086 58.6139 38.0036C58.0356 37.9973 57.4586 38.0023 56.8803 38.0036C56.81 38.0036 56.7398 38.0098 56.6582 38.0136C56.6582 37.9471 56.6582 37.8969 56.6582 37.8455C56.6582 37.2309 56.6658 36.6163 56.6545 36.003C56.6469 35.5728 56.3258 35.2981 55.9181 35.347C55.5782 35.3884 55.3436 35.6455 55.3398 36.0118C55.3335 36.6264 55.3423 37.241 55.3448 37.8543C55.3448 37.9032 55.3448 37.9534 55.3448 38.0023C54.7126 38.0023 54.1029 37.9985 53.4945 38.0048C53.3666 38.0048 53.2336 38.0249 53.1119 38.0638C52.8234 38.1553 52.6603 38.4287 52.6854 38.7486C52.7092 39.0483 52.9112 39.2704 53.2135 39.3193V39.3168ZM53.8445 52.7524C54.2572 53.17 54.6699 53.5864 55.1015 54.0204C55.0814 54.033 55.055 54.0417 55.0375 54.0593C54.5332 54.5635 54.0214 55.0614 53.5296 55.5769C53.2198 55.9018 53.3352 56.3985 53.7429 56.5904C54.0113 56.7158 54.2509 56.6569 54.5144 56.396C55.0124 55.9018 55.5092 55.4064 56.0247 54.8921C56.0373 54.9147 56.0461 54.941 56.0636 54.9586C56.5616 55.4616 57.0584 55.967 57.5589 56.4675C57.9779 56.8864 58.555 56.549 58.644 56.1288C58.703 55.8516 58.5675 55.6484 58.3831 55.4653C57.8914 54.9787 57.4009 54.4908 56.9066 54.0003C57.308 53.6002 57.6982 53.2114 58.0871 52.8226C58.22 52.6896 58.3555 52.5605 58.481 52.4212C58.6164 52.272 58.6867 52.0951 58.6491 51.8894C58.5525 51.3702 57.9792 51.1645 57.584 51.5157C57.3858 51.6913 57.2052 51.8882 57.0208 52.0788C56.6921 52.4175 56.3672 52.7586 56.0348 53.1036C55.8717 52.9405 55.7437 52.8113 55.6145 52.6834C55.2156 52.287 54.8255 51.8819 54.4153 51.4981C54.1606 51.2585 53.7956 51.2937 53.5459 51.547C53.3001 51.7979 53.2825 52.1403 53.5108 52.4062C53.6162 52.5291 53.7329 52.6407 53.8458 52.7549L53.8445 52.7524ZM79.9986 33.5171C79.9986 32.4146 79.6147 31.4814 78.773 30.759C78.1232 30.2008 77.3454 30.0001 76.4999 30.0001C72.2762 30.0026 68.0537 30.0001 63.83 30.0001C59.7367 30.0001 55.6434 29.9989 51.5501 30.0039C51.239 30.0039 50.9216 30.019 50.6193 30.0842C49.0864 30.4153 48.0013 31.7762 48 33.3503C48 37.8643 48 42.3797 48 46.8937C48 50.6176 48 54.3403 48.0013 58.0641C48.0013 58.3551 48.0075 58.6474 48.0314 58.9371C48.1041 59.8414 48.4905 60.5965 49.1704 61.1897C49.8353 61.7705 50.6306 62 51.5049 62C59.7279 61.9987 67.9508 62 76.1738 61.9975C76.4385 61.9975 76.7044 61.9862 76.9691 61.9674C77.7594 61.9122 78.4418 61.5974 78.9963 61.0405C79.6925 60.3419 79.9986 59.4777 79.9986 58.4969C79.9986 54.8156 79.9986 51.1331 79.9986 47.4519C79.9986 42.8074 79.9986 38.1616 79.9986 33.5171ZM49.336 43.4044C49.336 40.2336 49.336 37.0629 49.3385 33.8921C49.3385 33.5547 49.3247 33.2123 49.3837 32.8824C49.5304 32.0546 50.3571 31.3698 51.2001 31.3409C51.382 31.3347 51.5639 31.3384 51.7471 31.3384C55.5581 31.3384 59.3691 31.3384 63.1814 31.3397C63.2228 31.3397 63.2629 31.3397 63.3269 31.3397V45.3309H49.336C49.336 44.68 49.336 44.0415 49.336 43.4031V43.4044ZM63.3307 60.6579C63.2642 60.6579 63.199 60.6579 63.1337 60.6579C59.3942 60.6579 55.6559 60.6592 51.9164 60.6579C51.594 60.6579 51.2666 60.6793 50.9505 60.6329C50.1464 60.515 49.3071 59.6771 49.3272 58.6524C49.3473 57.6013 49.336 56.549 49.336 55.4967C49.3372 52.6332 49.3385 49.7685 49.3385 46.905C49.3385 46.8335 49.3297 46.7608 49.3234 46.6717H63.3294V60.6567L63.3307 60.6579ZM64.6679 31.3422C68.7298 31.3422 72.7742 31.3397 76.8198 31.3447C77.708 31.3447 78.6049 32.2139 78.6563 33.1007C78.6701 33.3289 78.6614 33.5585 78.6614 33.7867C78.6614 37.5558 78.6614 41.3261 78.6614 45.0951V45.3334H64.6679V31.3422ZM78.2925 59.8239C77.9074 60.3381 77.4107 60.6542 76.7483 60.6592C76.446 60.6617 76.1449 60.6592 75.8426 60.6592C72.2285 60.6592 68.6157 60.6592 65.0016 60.6592C64.8937 60.6592 64.7846 60.6592 64.6566 60.6592V46.668H78.6614V47.2675C78.6614 51.0052 78.6588 54.7441 78.6651 58.4818C78.6651 58.9685 78.5911 59.4263 78.2925 59.8226V59.8239ZM74.5191 55.3286C72.8482 55.3324 71.1773 55.3299 69.5064 55.3311C69.4286 55.3311 69.3495 55.3311 69.273 55.3399C68.9556 55.3763 68.6997 55.6409 68.6822 55.9495C68.6621 56.2931 68.8729 56.5778 69.204 56.6431C69.3107 56.6644 69.4211 56.6631 69.5302 56.6631C70.3531 56.6644 71.1748 56.6631 71.9977 56.6631C72.8407 56.6631 73.6837 56.6631 74.5279 56.6631C74.5957 56.6631 74.6634 56.6631 74.7312 56.6556C75.1903 56.613 75.4638 56.1414 75.2693 55.7237C75.12 55.4039 74.8453 55.3274 74.5204 55.3286H74.5191ZM69.2053 52.6445C69.3119 52.6646 69.4223 52.6633 69.5314 52.6646C70.3544 52.6658 71.176 52.6646 71.999 52.6646V52.6621C72.645 52.6621 73.2898 52.6621 73.9358 52.6621C74.2018 52.6621 74.4677 52.6721 74.7324 52.6533C75.1915 52.6207 75.4625 52.139 75.2668 51.7226C75.12 51.4103 74.8516 51.33 74.5329 51.33C72.852 51.3325 71.1698 51.3313 69.4888 51.3325C69.416 51.3325 69.3433 51.3325 69.2705 51.3413C68.9531 51.3789 68.6985 51.6449 68.6822 51.9534C68.6634 52.2971 68.8754 52.5818 69.2065 52.6445H69.2053ZM74.5618 37.9998C72.8695 37.9985 71.1773 37.9998 69.485 37.9998C69.3822 37.9998 69.2768 38.0136 69.1764 38.0362C68.8678 38.1089 68.6734 38.3798 68.6847 38.7072C68.696 39.0308 68.9005 39.2653 69.2241 39.3168C69.3157 39.3318 69.411 39.3356 69.5038 39.3356C70.3368 39.3368 71.1698 39.3356 72.0027 39.3356C72.8307 39.3356 73.6586 39.3356 74.4865 39.3356C74.5907 39.3356 74.696 39.3318 74.7976 39.313C75.1577 39.2453 75.3772 38.9279 75.3207 38.5667C75.263 38.203 74.9958 37.9998 74.5618 37.9998Z" fill="white"/>
    <g style="mix-blend-mode:plus-lighter" filter="url(#filter2_f_0_1)">
        <circle cx="49.5" cy="64.5" r="17.5" fill="#5F6DFF"/>
    </g>
    <g style="mix-blend-mode:plus-lighter" filter="url(#filter3_f_0_1)">
        <circle cx="87" cy="26" r="2" fill="#5F6DFF"/>
    </g>
    <defs>
        <filter id="filter0_f_0_1" x="0.949463" y="-18.2421" width="126.101" height="125.873" filterUnits="userSpaceOnUse" color-interpolation-filters="sRGB">
            <feFlood flood-opacity="0" result="BackgroundImageFix"/>
            <feBlend mode="normal" in="SourceGraphic" in2="BackgroundImageFix" result="shape"/>
            <feGaussianBlur stdDeviation="16" result="effect1_foregroundBlur_0_1"/>
        </filter>
        <filter id="filter1_f_0_1" x="54" y="7" width="50" height="48" filterUnits="userSpaceOnUse" color-interpolation-filters="sRGB">
            <feFlood flood-opacity="0" result="BackgroundImageFix"/>
            <feBlend mode="normal" in="SourceGraphic" in2="BackgroundImageFix" result="shape"/>
            <feGaussianBlur stdDeviation="8" result="effect1_foregroundBlur_0_1"/>
        </filter>
        <filter id="filter2_f_0_1" x="16" y="31" width="67" height="67" filterUnits="userSpaceOnUse" color-interpolation-filters="sRGB">
            <feFlood flood-opacity="0" result="BackgroundImageFix"/>
            <feBlend mode="normal" in="SourceGraphic" in2="BackgroundImageFix" result="shape"/>
            <feGaussianBlur stdDeviation="8" result="effect1_foregroundBlur_0_1"/>
        </filter>
        <filter id="filter3_f_0_1" x="81" y="20" width="12" height="12" filterUnits="userSpaceOnUse" color-interpolation-filters="sRGB">
            <feFlood flood-opacity="0" result="BackgroundImageFix"/>
            <feBlend mode="normal" in="SourceGraphic" in2="BackgroundImageFix" result="shape"/>
            <feGaussianBlur stdDeviation="2" result="effect1_foregroundBlur_0_1"/>
        </filter>
    </defs>
</svg>