<svg width="32" height="33" viewBox="0 0 32 33" fill="none" xmlns="http://www.w3.org/2000/svg">
<path d="M0.5 4.5C0.5 2.567 2.067 1 4 1H28C29.933 1 31.5 2.567 31.5 4.5V28.5C31.5 30.433 29.933 32 28 32H4C2.067 32 0.5 30.433 0.5 28.5V4.5Z" stroke="#ECEFF1"/>
<path d="M23.5 15.5H17V9C17 8.86458 16.9479 8.75 16.8438 8.65625C16.75 8.55208 16.6354 8.5 16.5 8.5H15.5C15.3646 8.5 15.2448 8.55208 15.1406 8.65625C15.0469 8.75 15 8.86458 15 9V15.5H8.5C8.36458 15.5 8.24479 15.5521 8.14062 15.6562C8.04688 15.75 8 15.8646 8 16V17C8 17.1354 8.04688 17.2552 8.14062 17.3594C8.24479 17.4531 8.36458 17.5 8.5 17.5H15V24C15 24.1354 15.0469 24.25 15.1406 24.3438C15.2448 24.4479 15.3646 24.5 15.5 24.5H16.5C16.6354 24.5 16.75 24.4479 16.8438 24.3438C16.9479 24.25 17 24.1354 17 24V17.5H23.5C23.6354 17.5 23.75 17.4531 23.8438 17.3594C23.9479 17.2552 24 17.1354 24 17V16C24 15.8646 23.9479 15.75 23.8438 15.6562C23.75 15.5521 23.6354 15.5 23.5 15.5Z" fill="#1565C0"/>
</svg>
