<svg width="32" height="33" viewBox="0 0 32 33" fill="none" xmlns="http://www.w3.org/2000/svg">
<path d="M0.5 4.5C0.5 2.567 2.067 1 4 1H28C29.933 1 31.5 2.567 31.5 4.5V28.5C31.5 30.433 29.933 32 28 32H4C2.067 32 0.5 30.433 0.5 28.5V4.5Z" stroke="#ECEFF1"/>
<path fill-rule="evenodd" clip-rule="evenodd" d="M21.2071 8.82843C21.4174 8.61814 21.7026 8.5 22 8.5C22.1473 8.5 22.2931 8.529 22.4291 8.58535C22.5652 8.64171 22.6888 8.7243 22.7929 8.82843C22.897 8.93255 22.9796 9.05616 23.036 9.19221C23.0923 9.32825 23.1213 9.47407 23.1213 9.62132C23.1213 9.76857 23.0923 9.91439 23.036 10.0504C22.9796 10.1865 22.897 10.3101 22.7929 10.4142L10.4888 22.7184L8.37439 23.247L8.90298 21.1326L21.2071 8.82843ZM22 6.5C21.1722 6.5 20.3783 6.82885 19.7929 7.41421L7.29291 19.9142C7.16476 20.0424 7.07384 20.203 7.02988 20.3788L6.02988 24.3788C5.94469 24.7196 6.04453 25.08 6.29291 25.3284C6.5413 25.5768 6.90178 25.6767 7.24256 25.5915L11.2426 24.5915C11.4184 24.5475 11.579 24.4566 11.7071 24.3284L24.2071 11.8284C24.497 11.5386 24.7269 11.1945 24.8837 10.8158C25.0406 10.4371 25.1213 10.0312 25.1213 9.62132C25.1213 9.21142 25.0406 8.80554 24.8837 8.42684C24.7269 8.04815 24.497 7.70405 24.2071 7.41421C23.9173 7.12437 23.5732 6.89446 23.1945 6.7376C22.8158 6.58074 22.4099 6.5 22 6.5ZM16 23.6213C15.4477 23.6213 15 24.069 15 24.6213C15 25.1736 15.4477 25.6213 16 25.6213L25 25.6213C25.5523 25.6213 26 25.1736 26 24.6213C26 24.069 25.5523 23.6213 25 23.6213L16 23.6213Z" fill="#1565C0"/>
</svg>
