<svg width="12" height="13" viewBox="0 0 12 13" fill="none" xmlns="http://www.w3.org/2000/svg">
<path fill-rule="evenodd" clip-rule="evenodd" d="M12 2.86365L10.1861 0.704731C9.98842 0.469498 9.62792 0.431359 9.38086 0.619546C9.13381 0.807732 9.09375 1.15098 9.2914 1.38621L10.0745 2.3182L0.578712 2.3182C0.576764 2.31819 0.574815 2.31819 0.572866 2.31819C0.256481 2.31819 0 2.5624 0 2.86365C0 3.16489 0.256481 3.40911 0.572866 3.40911H0.579287C1.34643 3.4111 2.0765 3.7695 2.8355 4.4086C3.59983 5.05219 4.32406 5.91986 5.0887 6.83873L5.10778 6.86167C5.85045 7.75417 6.63305 8.69466 7.48091 9.40859C8.23735 10.0455 9.09911 10.5487 10.0935 10.6592L9.2914 11.6138C9.09375 11.849 9.13381 12.1923 9.38086 12.3805C9.62792 12.5686 9.98842 12.5305 10.1861 12.2953L12 10.1364L10.4724 8.31817L12 6.5L10.4724 4.68182L12 2.86365ZM9.22137 8.5527C9.24165 8.59332 9.26739 8.63189 9.29849 8.66736L10.0377 9.54714C9.43445 9.43355 8.84642 9.1021 8.23991 8.5914C7.47559 7.94781 6.75135 7.08014 5.98672 6.16126L5.96763 6.13832C5.65604 5.76386 5.33741 5.38095 5.00989 5.00988C5.08359 5.05398 5.1576 5.09841 5.23198 5.1431L5.28237 5.17338C6.66284 6.00301 8.17882 6.91407 10.0853 7.03252L9.2985 7.96897C9.2674 8.00445 9.24165 8.04303 9.22137 8.08365C9.14637 8.23333 9.1483 8.40629 9.22137 8.5527ZM5.79305 4.19026C5.35806 3.92885 4.90962 3.65935 4.43975 3.40911H10.0744L9.29856 4.33256C9.26666 4.36893 9.24038 4.40857 9.21987 4.45033C9.18357 4.52393 9.16579 4.60306 9.16584 4.68182C9.16579 4.76059 9.18357 4.83972 9.21987 4.91332C9.24039 4.95508 9.26666 4.99472 9.29856 5.03109L10.0597 5.93699C8.51598 5.81406 7.24471 5.06251 5.84344 4.22054L5.79305 4.19026Z" fill="white"/>
</svg>
