<svg width="12" height="12" viewBox="0 0 12 12" fill="none" xmlns="http://www.w3.org/2000/svg">
<path d="M11.625 5.25H6.75V0.375C6.75 0.273437 6.71094 0.1875 6.63281 0.117188C6.5625 0.0390625 6.47656 0 6.375 0H5.625C5.52344 0 5.43359 0.0390625 5.35547 0.117188C5.28516 0.1875 5.25 0.273437 5.25 0.375V5.25H0.375C0.273437 5.25 0.183594 5.28906 0.105469 5.36719C0.0351562 5.4375 0 5.52344 0 5.625V6.375C0 6.47656 0.0351562 6.56641 0.105469 6.64453C0.183594 6.71484 0.273437 6.75 0.375 6.75H5.25V11.625C5.25 11.7266 5.28516 11.8125 5.35547 11.8828C5.43359 11.9609 5.52344 12 5.625 12H6.375C6.47656 12 6.5625 11.9609 6.63281 11.8828C6.71094 11.8125 6.75 11.7266 6.75 11.625V6.75H11.625C11.7266 6.75 11.8125 6.71484 11.8828 6.64453C11.9609 6.56641 12 6.47656 12 6.375V5.625C12 5.52344 11.9609 5.4375 11.8828 5.36719C11.8125 5.28906 11.7266 5.25 11.625 5.25Z" fill="#1565C0"/>
</svg>
