<svg width="14" height="12" viewBox="0 0 14 12" fill="none" xmlns="http://www.w3.org/2000/svg">
<path d="M9.65557 3.54675C9.72392 3.69267 9.78505 3.84207 9.83868 3.99441L10.1187 3.99441C10.8068 3.99396 11.4777 4.21276 12.0331 4.61908C12.5886 5.02548 13.0002 5.59833 13.2081 6.2545C13.416 6.91067 13.4094 7.61601 13.1892 8.26817C12.9691 8.92033 12.5469 9.48537 11.9838 9.8813C11.74 10.0528 11.4034 9.99409 11.2319 9.75028C11.0605 9.50646 11.1191 9.16982 11.3629 8.99838C11.7383 8.73442 12.0198 8.35773 12.1665 7.92295C12.3133 7.48818 12.3177 7.01795 12.1791 6.58051C12.0405 6.14306 11.7661 5.76116 11.3958 5.49023C11.0254 5.21929 10.5784 5.07342 10.1195 5.07378H9.43908C9.19268 5.07378 8.97757 4.9069 8.91633 4.66823C8.7743 4.11472 8.50856 3.60065 8.1391 3.1647C7.76965 2.72876 7.30611 2.38231 6.78339 2.15144C6.26066 1.92056 5.69238 1.81128 5.12131 1.83182C4.55024 1.85236 3.99126 2.00218 3.48648 2.27C2.98169 2.53783 2.54423 2.91668 2.20704 3.37803C1.86986 3.83939 1.64173 4.37122 1.53983 4.9335C1.43792 5.49578 1.46491 6.07385 1.61874 6.6242C1.77258 7.17454 2.04926 7.68281 2.42796 8.11075C2.62548 8.33396 2.60466 8.67504 2.38145 8.87256C2.15824 9.07009 1.81717 9.04927 1.61964 8.82606C1.13274 8.27585 0.77701 7.62236 0.579221 6.91477C0.381431 6.20719 0.346738 5.46396 0.477755 4.74102C0.608772 4.01809 0.902083 3.3343 1.33561 2.74113C1.76913 2.14796 2.33157 1.66087 2.98059 1.31652C3.6296 0.972175 4.34828 0.779548 5.08251 0.753144C5.15699 0.750466 5.23144 0.749505 5.30579 0.75025L5.07712 0.603241C5.83403 0.576021 6.58725 0.720866 7.28008 1.02687C7.97291 1.33288 8.58729 1.79207 9.07697 2.36987C9.41409 2.76766 9.68606 3.21454 9.88423 3.69375L9.65557 3.54675Z" fill="white"/>
<path d="M9.88423 3.69375C9.90485 3.74363 9.92468 3.79385 9.94369 3.84441L10.1186 3.84441L9.88423 3.69375Z" fill="white"/>
<path fill-rule="evenodd" clip-rule="evenodd" d="M6.88097 5.46346C6.50006 5.46346 6.19128 5.77225 6.19128 6.15315V9.34523L5.20992 8.36387C4.94058 8.09453 4.50389 8.09453 4.23456 8.36387C3.96522 8.63321 3.96522 9.06989 4.23456 9.33923L6.38831 11.493L6.38887 11.4935C6.40921 11.5143 6.43086 11.5337 6.45368 11.5517L6.44318 11.3357L6.49545 11.388C6.51154 11.4044 6.52866 11.4198 6.54672 11.4341C6.57525 11.4566 6.60552 11.4759 6.63704 11.4919C6.7103 11.529 6.79319 11.55 6.88097 11.55C6.9629 11.55 7.04056 11.5317 7.11012 11.4991C7.15617 11.4775 7.19979 11.4491 7.23946 11.4137C7.24816 11.406 7.25661 11.398 7.2648 11.3897L7.30214 11.3524L7.33919 11.5258C7.35013 11.5161 7.36076 11.506 7.37106 11.4956L7.37148 11.4952L9.5274 9.33923C9.79674 9.06989 9.79674 8.63321 9.5274 8.36387C9.25807 8.09453 8.82138 8.09453 8.55204 8.36387L7.57065 9.34526V6.15315C7.57065 5.77225 7.26187 5.46346 6.88097 5.46346Z" fill="white"/>
</svg>
