<svg width="20" height="24" viewBox="0 0 20 24" fill="none" xmlns="http://www.w3.org/2000/svg">
<path fill-rule="evenodd" clip-rule="evenodd" d="M8.37751 3C4.30955 3 1 6.28827 1 10.3088C1 14.3293 4.30955 17.6175 8.37751 17.6175C9.9267 17.6175 11.3756 17.132 12.5655 16.3188L16.9381 20.6506C17.1738 20.8842 17.4842 21 17.8021 21C18.4974 21 19 20.4658 19 19.7946C19 19.4818 18.8938 19.1829 18.6567 18.948L14.315 14.6376C15.2187 13.4204 15.755 11.9276 15.755 10.3088C15.755 6.28815 12.4359 3 8.37751 3ZM2.8503 10.3088C2.8503 7.31267 5.34414 4.83306 8.37751 4.83306C11.4016 4.83306 13.9047 7.31283 13.9047 10.3088C13.9047 13.3047 11.4016 15.7845 8.37751 15.7845C5.34414 15.7845 2.8503 13.3048 2.8503 10.3088Z" fill="#1565C0"/>
</svg>
