<svg width="32" height="32" viewBox="0 0 32 32" fill="none" xmlns="http://www.w3.org/2000/svg">
<path d="M0.5 4C0.5 2.067 2.067 0.5 4 0.5H28C29.933 0.5 31.5 2.067 31.5 4V28C31.5 29.933 29.933 31.5 28 31.5H4C2.067 31.5 0.5 29.933 0.5 28V4Z" stroke="#ECEFF1"/>
<mask id="path-2-inside-1_3_867" fill="white">
<path fill-rule="evenodd" clip-rule="evenodd" d="M16 13C14.3431 13 13 14.3432 13 16C13 17.6569 14.3431 19 16 19C17.6569 19 19 17.6569 19 16C19 14.3432 17.6569 13 16 13ZM15 16C15 15.4477 15.4477 15 16 15C16.5523 15 17 15.4477 17 16C17 16.5523 16.5523 17 16 17C15.4477 17 15 16.5523 15 16Z"/>
<path fill-rule="evenodd" clip-rule="evenodd" d="M22.9694 18.8583L22.0545 18.4545L22.9737 18.8485C23.0006 18.7857 23.0452 18.7322 23.1021 18.6945C23.1586 18.6571 23.2248 18.6369 23.2926 18.6364H23.3636C24.0628 18.6364 24.7334 18.3586 25.2278 17.8642C25.7222 17.3698 26 16.6992 26 16C26 15.3008 25.7222 14.6302 25.2278 14.1358C24.7334 13.6414 24.0628 13.3636 23.3636 13.3636H23.2272C23.1594 13.3631 23.0932 13.3429 23.0367 13.3055C23.007 13.2858 22.9807 13.2619 22.9585 13.2346C22.9448 13.1805 22.9266 13.1275 22.904 13.0762C22.8757 13.0123 22.8673 12.9413 22.8798 12.8725C22.892 12.8049 22.9239 12.7424 22.9714 12.6928L23.0153 12.6489C23.2602 12.4042 23.4545 12.1135 23.5871 11.7937C23.7198 11.4736 23.7881 11.1306 23.7881 10.7841C23.7881 10.4376 23.7198 10.0946 23.5871 9.77452C23.4545 9.45447 23.26 9.16371 23.0149 8.91886C22.7702 8.67412 22.4797 8.47993 22.16 8.3474C21.84 8.21473 21.4969 8.14644 21.1505 8.14644C20.804 8.14644 20.4609 8.21473 20.1409 8.3474C19.821 8.48 19.53 8.67471 19.2852 8.91965L19.2417 8.96319C19.1921 9.01065 19.1297 9.04252 19.0621 9.05477C18.9933 9.06725 18.9223 9.05878 18.8583 9.03054L18.8485 9.02631C18.7857 8.99943 18.7322 8.95478 18.6945 8.89787C18.6571 8.84135 18.6369 8.7752 18.6364 8.70744V8.63636C18.6364 7.93716 18.3586 7.26659 17.8642 6.77217C17.3698 6.27776 16.6992 6 16 6C15.3008 6 14.6302 6.27776 14.1358 6.77217C13.6414 7.26659 13.3636 7.93716 13.3636 8.63636V8.77277C13.3631 8.84057 13.3429 8.90677 13.3055 8.96332C13.2858 8.99296 13.2619 9.01927 13.2346 9.04148C13.1805 9.05517 13.1276 9.0734 13.0762 9.09605C13.0123 9.12428 12.9413 9.13271 12.8725 9.12023C12.8049 9.10797 12.7424 9.0761 12.6928 9.02863L12.6493 8.9851C12.4045 8.73998 12.1137 8.54553 11.7937 8.41286C11.4736 8.28018 11.1305 8.21189 10.7841 8.21189C10.4376 8.21189 10.0946 8.28018 9.77452 8.41286C9.45464 8.54546 9.16402 8.73978 8.91926 8.98471C8.67432 9.22948 8.48 9.5201 8.3474 9.83998C8.21473 10.16 8.14644 10.5031 8.14644 10.8495C8.14644 11.196 8.21473 11.5391 8.3474 11.8591C8.48008 12.1792 8.67453 12.4699 8.91965 12.7148L8.96317 12.7583C9.01065 12.8079 9.04252 12.8703 9.05477 12.9379C9.06725 13.0067 9.05883 13.0777 9.03059 13.1417C9.02209 13.161 9.01419 13.1805 9.00692 13.2003C8.98268 13.2662 8.93917 13.3233 8.88204 13.3641C8.82706 13.4035 8.76191 13.426 8.6945 13.4291H8.63636C7.93716 13.4291 7.26659 13.7068 6.77217 14.2013C6.27776 14.6957 6 15.3662 6 16.0655C6 16.7647 6.27776 17.4352 6.77217 17.9296C7.26659 18.4241 7.93716 18.7018 8.63636 18.7018H8.77289C8.84065 18.7024 8.90681 18.7226 8.96332 18.76C9.02023 18.7977 9.06483 18.8512 9.09172 18.914L9.09605 18.9238C9.12428 18.9877 9.13271 19.0587 9.12023 19.1275C9.10797 19.1951 9.07611 19.2576 9.02864 19.3071L8.98471 19.3511C8.73978 19.5958 8.54546 19.8865 8.41286 20.2063C8.28018 20.5264 8.21189 20.8694 8.21189 21.2159C8.21189 21.5624 8.28018 21.9054 8.41286 22.2255C8.54539 22.5452 8.73957 22.8357 8.98432 23.0804C9.22917 23.3255 9.51993 23.5199 9.83998 23.6526C10.16 23.7853 10.5031 23.8536 10.8495 23.8536C11.196 23.8536 11.5391 23.7853 11.8591 23.6526C12.179 23.52 12.47 23.3253 12.7148 23.0804L12.7583 23.0368C12.8079 22.9894 12.8703 22.9575 12.9379 22.9452C13.0067 22.9327 13.0777 22.9412 13.1417 22.9694C13.161 22.9779 13.1805 22.9858 13.2003 22.9931C13.2662 23.0173 13.3233 23.0608 13.3641 23.118C13.4035 23.1729 13.426 23.2381 13.4291 23.3055V23.3636C13.4291 24.0628 13.7068 24.7334 14.2013 25.2278C14.6957 25.7222 15.3662 26 16.0655 26C16.7647 26 17.4352 25.7222 17.9296 25.2278C18.4241 24.7334 18.7018 24.0628 18.7018 23.3636V23.2271C18.7024 23.1593 18.7226 23.0932 18.76 23.0367C18.7977 22.9798 18.8512 22.9352 18.914 22.9083L18.9238 22.904C18.9877 22.8757 19.0587 22.8673 19.1275 22.8798C19.1951 22.892 19.2576 22.9239 19.3072 22.9714L19.3507 23.0149C19.5955 23.26 19.8863 23.4545 20.2063 23.5871C20.5264 23.7198 20.8694 23.7881 21.2159 23.7881C21.5624 23.7881 21.9054 23.7198 22.2255 23.5871C22.5454 23.4545 22.836 23.2602 23.0807 23.0153C23.3257 22.7705 23.52 22.4799 23.6526 22.16C23.7853 21.84 23.8536 21.4969 23.8536 21.1505C23.8536 20.804 23.7853 20.4609 23.6526 20.1409C23.5199 19.8208 23.3255 19.5301 23.0804 19.2852L23.0368 19.2417C22.9893 19.1921 22.9575 19.1297 22.9452 19.0621C22.9327 18.9933 22.9412 18.9223 22.9694 18.8583ZM15.55 8.18639C15.6694 8.06704 15.8312 8 16 8C16.1688 8 16.3306 8.06704 16.45 8.18639C16.5693 8.30573 16.6364 8.46759 16.6364 8.63636V8.71L16.6364 8.71399C16.6382 9.17229 16.774 9.62006 17.0271 10.0022C17.2791 10.3828 17.6366 10.6817 18.0557 10.8625C18.484 11.0503 18.9586 11.1061 19.4189 11.0227C19.8809 10.9389 20.3073 10.7187 20.6429 10.3904L20.7002 10.3331C20.7593 10.2739 20.8295 10.227 20.9068 10.1949C20.984 10.1629 21.0668 10.1464 21.1505 10.1464C21.2341 10.1464 21.3169 10.1629 21.3941 10.1949C21.4714 10.227 21.5416 10.2739 21.6007 10.3331C21.6598 10.3922 21.7076 10.4631 21.7396 10.5404C21.7716 10.6177 21.7881 10.7005 21.7881 10.7841C21.7881 10.8677 21.7716 10.9505 21.7396 11.0278C21.7076 11.105 21.6602 11.1756 21.6011 11.2347L21.5519 11.2838L21.5442 11.2916C21.2159 11.6273 20.9956 12.0536 20.9119 12.5157C20.8402 12.9107 20.8712 13.3164 21.0002 13.6943C21.0129 13.7784 21.0363 13.8608 21.07 13.9394C21.2505 14.3606 21.5503 14.7199 21.9324 14.9729C22.3145 15.226 22.7623 15.3618 23.2206 15.3636L23.2245 15.3636H23.3636C23.5324 15.3636 23.6943 15.4307 23.8136 15.55C23.933 15.6694 24 15.8312 24 16C24 16.1688 23.933 16.3306 23.8136 16.45C23.6943 16.5693 23.5324 16.6364 23.3636 16.6364L23.29 16.6364L23.286 16.6364C22.8277 16.6382 22.3799 16.774 21.9978 17.0271C21.6172 17.2791 21.3183 17.6366 21.1375 18.0557C20.9497 18.484 20.8939 18.9586 20.9773 19.4189C21.0611 19.8809 21.2813 20.3073 21.6096 20.6429L21.6669 20.7002C21.7261 20.7593 21.773 20.8295 21.8051 20.9068C21.8371 20.984 21.8536 21.0668 21.8536 21.1505C21.8536 21.2341 21.8371 21.3169 21.8051 21.3941C21.773 21.4714 21.7261 21.5416 21.6669 21.6007C21.6078 21.6598 21.5369 21.7076 21.4596 21.7396C21.3823 21.7716 21.2995 21.7881 21.2159 21.7881C21.1323 21.7881 21.0495 21.7716 20.9722 21.7396C20.895 21.7076 20.8244 21.6602 20.7653 21.6011L20.7162 21.5519L20.7084 21.5442C20.3727 21.2159 19.9464 20.9956 19.4843 20.9119C19.0241 20.8284 18.5495 20.8842 18.1212 21.0721C17.702 21.2528 17.3446 21.5518 17.0925 21.9324C16.8395 22.3145 16.7037 22.7623 16.7018 23.2206L16.7018 23.2245V23.3636C16.7018 23.5324 16.6348 23.6943 16.5154 23.8136C16.3961 23.933 16.2342 24 16.0655 24C15.8967 24 15.7348 23.933 15.6155 23.8136C15.4961 23.6943 15.4291 23.5324 15.4291 23.3636V23.29L15.4288 23.2666C15.4178 22.7952 15.2652 22.338 14.9909 21.9545C14.7227 21.5795 14.3503 21.2919 13.9202 21.1271C13.4983 20.9476 13.0328 20.8954 12.5811 20.9773C12.1191 21.0611 11.6927 21.2813 11.3571 21.6096L11.2998 21.6669C11.2407 21.7261 11.1705 21.773 11.0932 21.8051C11.016 21.8371 10.9332 21.8536 10.8495 21.8536C10.7659 21.8536 10.6831 21.8371 10.6059 21.8051C10.5286 21.773 10.4584 21.7261 10.3993 21.6669C10.3402 21.6078 10.2924 21.5369 10.2604 21.4596C10.2284 21.3823 10.2119 21.2995 10.2119 21.2159C10.2119 21.1323 10.2284 21.0495 10.2604 20.9722C10.2924 20.895 10.3398 20.8244 10.3989 20.7653L10.4481 20.7162L10.4558 20.7084C10.7841 20.3727 11.0044 19.9464 11.0881 19.4843C11.1716 19.0241 11.1158 18.5495 10.9279 18.1212C10.7472 17.702 10.4483 17.3446 10.0676 17.0925C9.68551 16.8395 9.23775 16.7036 8.77944 16.7018H8.63636C8.46759 16.7018 8.30573 16.6348 8.18639 16.5154C8.06704 16.3961 8 16.2342 8 16.0655C8 15.8967 8.06704 15.7348 8.18639 15.6155C8.30573 15.4961 8.46759 15.4291 8.63636 15.4291H8.71L8.73338 15.4288C9.2048 15.4178 9.662 15.2652 10.0455 14.9909C10.4205 14.7227 10.7081 14.3503 10.8729 13.9202C11.0524 13.4983 11.1046 13.0328 11.0227 12.5811C10.9389 12.1191 10.7187 11.6927 10.3904 11.3571L10.3331 11.2998C10.2739 11.2407 10.227 11.1705 10.1949 11.0932C10.1629 11.016 10.1464 10.9332 10.1464 10.8495C10.1464 10.7659 10.1629 10.6831 10.1949 10.6059C10.227 10.5286 10.2739 10.4584 10.3331 10.3993C10.3922 10.3402 10.4631 10.2924 10.5404 10.2604C10.6177 10.2284 10.7005 10.2119 10.7841 10.2119C10.8677 10.2119 10.9505 10.2284 11.0278 10.2604C11.105 10.2924 11.1756 10.3398 11.2347 10.3989L11.2838 10.4481L11.2916 10.4558C11.6273 10.7841 12.0536 11.0044 12.5157 11.0881C12.9107 11.1598 13.3164 11.1288 13.6943 10.9998C13.7784 10.9871 13.8608 10.9637 13.9394 10.93C14.3606 10.7495 14.7199 10.4497 14.9729 10.0676C15.226 9.68551 15.3618 9.23775 15.3636 8.77944V8.63636C15.3636 8.46759 15.4307 8.30573 15.55 8.18639Z"/>
</mask>
<path d="M22.3736 22.3082C22.3736 22.3082 22.3736 22.3082 22.3736 22.3082H22.3736V22.3082C22.3736 22.3082 22.3736 22.3082 22.3736 22.3082C22.3736 22.3082 22.3736 22.3082 22.3736 22.3082C22.3736 22.3082 22.3736 22.3082 22.3736 22.3082C22.3736 22.3082 22.3736 22.3082 22.3736 22.3082H22.3736C22.3736 22.3082 22.3736 22.3082 22.3736 22.3082C22.3736 22.3082 22.3736 22.3082 22.3736 22.3082C22.3736 22.3082 22.3736 22.3082 22.3736 22.3082C22.3736 22.3082 22.3736 22.3082 22.3736 22.3082C22.3736 22.3082 22.3736 22.3082 22.3736 22.3082H22.3736C22.3736 22.3082 22.3736 22.3082 22.3736 22.3082H22.3736C22.3736 22.3082 22.3736 22.3082 22.3736 22.3082C22.3736 22.3082 22.3736 22.3082 22.3736 22.3082V22.3082H22.3736C22.3736 22.3082 22.3736 22.3082 22.3736 22.3082H22.3736C22.3736 22.3082 22.3736 22.3082 22.3736 22.3082H22.3736V22.3082C22.3736 22.3082 22.3736 22.3082 22.3736 22.3082C22.3736 22.3082 22.3736 22.3082 22.3736 22.3082H22.3736C22.3736 22.3082 22.3736 22.3082 22.3736 22.3082H22.3736C22.3736 22.3082 22.3736 22.3082 22.3736 22.3082C22.3736 22.3082 22.3736 22.3082 22.3736 22.3082C22.3736 22.3082 22.3736 22.3082 22.3736 22.3082C22.3736 22.3082 22.3736 22.3082 22.3736 22.3082V22.3082C22.3736 22.3082 22.3736 22.3082 22.3736 22.3082V22.3082H22.3736C22.3736 22.3082 22.3736 22.3082 22.3736 22.3082C23.7878 23.7224 23.7878 23.7224 23.7878 23.7224C23.7878 23.7224 23.7878 23.7224 23.7878 23.7224C23.7878 23.7224 23.7878 23.7224 23.7878 23.7224C23.7878 23.7224 23.7878 23.7224 23.7878 23.7224H23.7878C23.7878 23.7224 23.7878 23.7224 23.7878 23.7224C23.7878 23.7224 23.7878 23.7224 23.7878 23.7224C23.7878 23.7224 23.7878 23.7224 23.7878 23.7224C23.7878 23.7224 23.7878 23.7224 23.7878 23.7224C23.7878 23.7224 23.7878 23.7224 23.7878 23.7224C23.7878 23.7224 23.7878 23.7224 23.7878 23.7224C23.7878 23.7224 23.7878 23.7224 23.7878 23.7224C23.7878 23.7224 23.7878 23.7224 23.7878 23.7224C23.7878 23.7224 23.7878 23.7224 23.7878 23.7224C23.7878 23.7224 23.7878 23.7224 23.7878 23.7224C23.7878 23.7224 23.7878 23.7224 23.7878 23.7224C23.7878 23.7224 23.7878 23.7224 23.7878 23.7224C23.7878 23.7224 23.7878 23.7224 23.7878 23.7224C23.7878 23.7224 23.7878 23.7224 23.7878 23.7224C23.7878 23.7224 23.7878 23.7224 23.7878 23.7224C23.7878 23.7224 23.7878 23.7224 23.7878 23.7224C23.7878 23.7224 23.7878 23.7224 23.7878 23.7224C23.7878 23.7224 23.7878 23.7224 23.7878 23.7224C23.7878 23.7224 23.7878 23.7224 23.7878 23.7224C23.7878 23.7224 23.7878 23.7224 23.7878 23.7224C23.7878 23.7224 23.7878 23.7224 23.7878 23.7224C23.7878 23.7224 23.7878 23.7224 23.7878 23.7224C23.7878 23.7224 23.7878 23.7224 23.7878 23.7224C23.7878 23.7224 23.7878 23.7224 23.7878 23.7224C23.7878 23.7224 23.7878 23.7224 23.7878 23.7224C23.7878 23.7224 23.7878 23.7224 23.7878 23.7224C23.7878 23.7224 23.7878 23.7224 23.7878 23.7224C23.7878 23.7224 23.7878 23.7224 23.7878 23.7224C23.7879 23.7224 23.7879 23.7224 23.7879 23.7224C23.7879 23.7224 23.7879 23.7224 23.7879 23.7224C23.7879 23.7224 23.7879 23.7224 23.7879 23.7224C23.7879 23.7224 23.7879 23.7224 23.7879 23.7224C23.7879 23.7224 23.7879 23.7224 23.7879 23.7224C23.7879 23.7224 23.7879 23.7224 23.7879 23.7224C23.7879 23.7224 23.7879 23.7224 23.7879 23.7224C23.7879 23.7224 23.7879 23.7224 23.7879 23.7224C23.7879 23.7224 23.7879 23.7224 23.7879 23.7224C23.7879 23.7224 23.7879 23.7224 23.7879 23.7224C23.7879 23.7224 23.7879 23.7224 23.7879 23.7224C23.7879 23.7224 23.7879 23.7224 23.7879 23.7224C23.7879 23.7224 23.7879 23.7224 23.7879 23.7224C23.7879 23.7224 23.7879 23.7224 23.7879 23.7224C23.7879 23.7224 23.7879 23.7224 23.7879 23.7224C23.7879 23.7224 23.7879 23.7224 23.7879 23.7224C23.7879 23.7224 23.7879 23.7224 23.7879 23.7224C23.7879 23.7224 23.7879 23.7224 23.7879 23.7224C23.7879 23.7224 23.7879 23.7224 23.7879 23.7224C23.7879 23.7224 23.7879 23.7224 23.7879 23.7224C23.7879 23.7224 23.7879 23.7224 23.7879 23.7224H23.7879C23.7879 23.7224 23.7879 23.7224 23.7879 23.7224C23.7879 23.7224 23.7879 23.7224 23.7879 23.7224V23.7224C23.7879 23.7224 23.7879 23.7224 23.7879 23.7224C23.7879 23.7224 23.7879 23.7224 23.7879 23.7224H23.7879C23.7879 23.7224 23.7879 23.7224 23.7879 23.7224C23.7879 23.7224 23.7879 23.7224 23.7879 23.7224H23.7879C23.7879 23.7224 23.7879 23.7224 23.7879 23.7224C23.7879 23.7224 23.7879 23.7224 23.7879 23.7224C23.7879 23.7224 23.7879 23.7224 22.3737 22.3081V22.3081H22.3737C22.3737 22.3081 22.3737 22.3081 22.3737 22.3081H22.3737V22.3081H22.3737C22.3737 22.3081 22.3737 22.3081 22.3737 22.3082C22.3737 22.3082 22.3737 22.3082 22.3737 22.3082C22.3737 22.3082 22.3737 22.3082 22.3737 22.3082C22.3737 22.3082 22.3737 22.3082 22.3737 22.3082V22.3082C22.3737 22.3082 22.3737 22.3082 22.3737 22.3082V22.3082C22.3737 22.3082 22.3737 22.3082 22.3737 22.3082C22.3737 22.3082 22.3737 22.3082 22.3737 22.3082C22.3737 22.3082 22.3737 22.3082 22.3737 22.3082C22.3737 22.3082 22.3737 22.3082 22.3737 22.3082H22.3737C22.3737 22.3082 22.3737 22.3082 22.3737 22.3082C22.3737 22.3082 22.3737 22.3082 22.3737 22.3082C22.3737 22.3082 22.3737 22.3082 22.3737 22.3082C22.3737 22.3082 22.3737 22.3082 22.3737 22.3082V22.3082C22.3736 22.3082 22.3736 22.3082 22.3736 22.3082C22.3736 22.3082 22.3736 22.3082 22.3736 22.3082H22.3736C22.3736 22.3082 22.3736 22.3082 22.3736 22.3082H22.3736C22.3736 22.3082 22.3736 22.3082 22.3736 22.3082H22.3736C22.3736 22.3082 22.3736 22.3082 22.3736 22.3082H22.3736C22.3736 22.3082 22.3736 22.3082 22.3736 22.3082C22.3736 22.3082 22.3736 22.3082 22.3736 22.3082V22.3082C22.3736 22.3082 22.3736 22.3082 22.3736 22.3082C22.3736 22.3082 22.3736 22.3082 22.3736 22.3082H22.3736V22.3082C22.3736 22.3082 22.3736 22.3082 22.3736 22.3082L23.7878 23.7224C23.7878 23.7224 23.7878 23.7224 23.7878 23.7224C23.7879 23.7224 23.7879 23.7224 23.7879 23.7224L23.7879 23.7224C23.7879 23.7224 23.7879 23.7224 23.7879 23.7224C23.7879 23.7224 23.7879 23.7224 23.7879 23.7224C23.7879 23.7224 23.7879 23.7224 23.7879 23.7224C23.7879 23.7224 23.7879 23.7224 23.7879 23.7224C23.7879 23.7224 23.7879 23.7224 23.7879 23.7224C23.7879 23.7224 23.7879 23.7224 23.7879 23.7224C23.7879 23.7224 23.7879 23.7224 23.7879 23.7224C23.7879 23.7224 23.7879 23.7224 23.7879 23.7224C23.7879 23.7224 23.7879 23.7224 23.7879 23.7224C23.7879 23.7224 23.7879 23.7224 23.7879 23.7224C23.7879 23.7224 23.7879 23.7224 23.7879 23.7224C23.7879 23.7224 23.7879 23.7224 23.7879 23.7224C23.7879 23.7224 23.7879 23.7224 23.7879 23.7224C23.7879 23.7224 23.7879 23.7224 23.7879 23.7224C23.7879 23.7224 23.7879 23.7224 23.7879 23.7224C23.7879 23.7224 23.7879 23.7224 23.7879 23.7224C23.7879 23.7224 23.7879 23.7224 23.7879 23.7224C23.7879 23.7224 23.7879 23.7224 23.7879 23.7224C23.7879 23.7224 23.7879 23.7224 23.7879 23.7224C23.7879 23.7224 23.7879 23.7224 23.7879 23.7224C23.7879 23.7224 23.7879 23.7224 23.7879 23.7224C23.7879 23.7224 23.7879 23.7224 23.7879 23.7224H23.7879C22.3737 22.3081 22.3737 22.3081 22.3737 22.3081V22.3081H22.3737C22.3737 22.3081 22.3737 22.3081 22.3737 22.3081C22.3737 22.3081 22.3737 22.3081 22.3737 22.3081C22.3737 22.3081 22.3737 22.3081 22.3737 22.3081C22.3737 22.3081 22.3737 22.3081 22.3737 22.3081C22.3737 22.3081 22.3737 22.3081 22.3737 22.3082C22.3737 22.3082 22.3737 22.3082 22.3737 22.3082C22.3737 22.3082 22.3737 22.3082 22.3737 22.3082C22.3737 22.3082 22.3737 22.3082 22.3737 22.3082C22.3737 22.3082 22.3737 22.3082 22.3737 22.3082C22.3737 22.3082 22.3737 22.3082 22.3737 22.3082C22.3737 22.3082 22.3737 22.3082 22.3737 22.3082H22.3737C22.3737 22.3082 22.3737 22.3082 22.3737 22.3082H22.3737V22.3082H22.3737C22.3737 22.3082 22.3737 22.3082 22.3737 22.3082C22.3737 22.3082 22.3737 22.3082 22.3737 22.3082C22.3737 22.3082 22.3737 22.3082 22.3737 22.3082C22.3737 22.3082 22.3737 22.3082 22.3737 22.3082V22.3082C22.3736 22.3082 22.3736 22.3082 22.3736 22.3082C22.3736 22.3082 22.3736 22.3082 22.3736 22.3082H22.3736C22.3736 22.3082 22.3736 22.3082 22.3736 22.3082C22.3736 22.3082 22.3736 22.3082 22.3736 22.3082C22.3736 22.3082 22.3736 22.3082 22.3736 22.3082C22.3736 22.3082 22.3736 22.3082 22.3736 22.3082C22.3736 22.3082 22.3736 22.3082 22.3736 22.3082C22.3736 22.3082 22.3736 22.3082 22.3736 22.3082C22.3736 22.3082 22.3736 22.3082 22.3736 22.3082C22.3736 22.3082 22.3736 22.3082 22.3736 22.3082C22.3736 22.3082 22.3736 22.3082 22.3736 22.3082C22.3736 22.3082 22.3736 22.3082 22.3736 22.3082C22.3736 22.3082 22.3736 22.3082 22.3736 22.3082C22.3736 22.3082 22.3736 22.3082 22.3736 22.3082C22.3736 22.3082 22.3736 22.3082 22.3736 22.3082C22.3736 22.3082 22.3736 22.3082 22.3736 22.3082C22.3736 22.3082 22.3736 22.3082 22.3736 22.3082C22.3736 22.3082 22.3736 22.3082 22.3736 22.3082C22.3736 22.3082 22.3736 22.3082 22.3736 22.3082C22.3736 22.3082 22.3736 22.3082 22.3736 22.3082C22.3736 22.3082 22.3736 22.3082 22.3736 22.3082C22.3736 22.3082 22.3736 22.3082 22.3736 22.3082C22.3736 22.3082 22.3736 22.3082 22.3736 22.3082C22.3736 22.3082 22.3736 22.3082 22.3736 22.3082C22.3736 22.3082 22.3736 22.3082 22.3736 22.3082C22.3736 22.3082 22.3736 22.3082 22.3736 22.3082C22.3736 22.3082 22.3736 22.3082 22.3736 22.3082C22.3736 22.3082 22.3736 22.3082 22.3736 22.3082C22.3736 22.3082 22.3736 22.3082 22.3736 22.3082C22.3736 22.3082 22.3736 22.3082 22.3736 22.3082V22.3082H22.3736C22.3736 22.3082 22.3736 22.3082 22.3736 22.3082C22.3736 22.3082 22.3736 22.3082 22.3736 22.3082V22.3082H22.3736C22.3736 22.3082 22.3736 22.3082 22.3736 22.3082C22.3736 22.3082 22.3736 22.3082 22.3736 22.3082C22.3736 22.3082 22.3736 22.3082 22.3736 22.3082C22.3736 22.3082 22.3736 22.3082 22.3736 22.3082C22.3736 22.3082 22.3736 22.3082 22.3736 22.3082C22.3736 22.3082 22.3736 22.3082 22.3736 22.3082C22.3736 22.3082 22.3736 22.3082 22.3736 22.3082C22.3736 22.3082 22.3736 22.3082 22.3736 22.3082C22.3736 22.3082 22.3736 22.3082 22.3736 22.3082H22.3736C22.3736 22.3082 22.3736 22.3082 22.3736 22.3082C22.3736 22.3082 22.3736 22.3082 22.3736 22.3082C22.3736 22.3082 22.3736 22.3082 22.3736 22.3082H22.3736C22.3736 22.3082 22.3736 22.3082 22.3736 22.3082C22.3736 22.3082 22.3736 22.3082 22.3736 22.3082V22.3082H22.3736V22.3082C22.3736 22.3082 22.3736 22.3082 23.7878 23.7224C23.7878 23.7224 23.7878 23.7224 23.7878 23.7224C23.7878 23.7224 23.7878 23.7224 23.7878 23.7224V23.7224C23.7878 23.7224 23.7878 23.7224 23.7878 23.7224C23.7878 23.7224 23.7878 23.7224 23.7878 23.7224C23.7878 23.7224 23.7878 23.7224 23.7878 23.7224C23.7878 23.7224 23.7878 23.7224 23.7878 23.7224C23.7878 23.7224 23.7878 23.7224 23.7878 23.7224C23.7878 23.7224 23.7878 23.7224 23.7878 23.7224C23.7878 23.7224 23.7878 23.7224 23.7878 23.7224C23.7878 23.7224 23.7878 23.7224 23.7878 23.7224C23.7878 23.7224 23.7878 23.7224 23.7878 23.7224C23.7878 23.7224 23.7878 23.7224 23.7878 23.7224C23.7878 23.7224 23.7878 23.7224 23.7878 23.7224C23.7878 23.7224 23.7878 23.7224 23.7878 23.7224C23.7878 23.7224 23.7878 23.7224 23.7878 23.7224C23.7878 23.7224 23.7878 23.7224 23.7878 23.7224C23.7878 23.7224 23.7878 23.7224 23.7878 23.7224C23.7878 23.7224 23.7878 23.7224 23.7878 23.7224C23.7878 23.7224 23.7878 23.7224 23.7878 23.7224C23.7878 23.7224 23.7878 23.7224 23.7878 23.7224C23.7878 23.7224 23.7878 23.7224 23.7878 23.7224C23.7878 23.7224 23.7878 23.7224 23.7878 23.7224C23.7878 23.7224 23.7878 23.7224 23.7878 23.7224L23.7878 23.7224L22.3736 22.3082ZM21.667 23.0157L22.3736 23.7224L23.7878 22.3082L23.0812 21.6015L21.667 23.0157ZM15.55 8.18639L16.9642 9.6006L16.9642 9.6006L15.55 8.18639ZM16.45 8.18639L17.8642 6.77218L17.8642 6.77217L16.45 8.18639ZM16.6364 8.71H14.6364L14.6364 8.71402L16.6364 8.71ZM16.6364 8.71399L14.6364 8.71801L14.6364 8.72196L16.6364 8.71399ZM17.0271 10.0022L15.3596 11.1065L15.3596 11.1065L17.0271 10.0022ZM18.0557 10.8625L18.8591 9.03088L18.8477 9.026L18.0557 10.8625ZM19.4189 11.0227L19.0621 9.05477L19.4189 11.0227ZM20.6429 10.3904L22.0415 11.8201L22.0494 11.8124L22.0572 11.8046L20.6429 10.3904ZM20.7002 10.3331L22.1144 11.7473L22.1152 11.7465L20.7002 10.3331ZM20.9068 10.1949L20.1409 8.3474L20.1409 8.34741L20.9068 10.1949ZM21.3941 10.1949L22.16 8.34741L22.16 8.3474L21.3941 10.1949ZM21.6007 10.3331L20.1857 11.7465L20.1872 11.7481L21.6007 10.3331ZM21.7396 10.5404L23.5871 9.77452L23.5871 9.7745L21.7396 10.5404ZM21.7396 11.0278L23.5871 11.7937L23.5871 11.7937L21.7396 11.0278ZM21.6011 11.2347L23.014 12.6502L23.0145 12.6497L21.6011 11.2347ZM21.5519 11.2838L20.139 9.86831L20.1305 9.87673L20.1222 9.88526L21.5519 11.2838ZM21.5442 11.2916L22.974 12.6902L22.974 12.6902L21.5442 11.2916ZM20.9119 12.5157L22.8798 12.8725V12.8725L20.9119 12.5157ZM21.0002 13.6943L22.978 13.3966L22.9511 13.2185L22.8929 13.048L21.0002 13.6943ZM21.07 13.9394L22.9082 13.1515L22.9082 13.1515L21.07 13.9394ZM21.9324 14.9729L20.8281 16.6404L20.8281 16.6404L21.9324 14.9729ZM23.2206 15.3636L23.2126 17.3636L23.2165 17.3636L23.2206 15.3636ZM23.2245 15.3636L23.2205 17.3636H23.2245V15.3636ZM23.8136 15.55L25.2278 14.1358L25.2278 14.1358L23.8136 15.55ZM23.8136 16.45L25.2278 17.8642L25.2278 17.8642L23.8136 16.45ZM23.3636 16.6364L23.3634 18.6364H23.3636V16.6364ZM23.29 16.6364L23.2902 14.6363L23.282 14.6364L23.29 16.6364ZM23.286 16.6364L23.294 18.6364H23.294L23.286 16.6364ZM21.9978 17.0271L20.8935 15.3596L20.8935 15.3596L21.9978 17.0271ZM21.1375 18.0557L22.9691 18.8591L22.974 18.8477L21.1375 18.0557ZM20.9773 19.4189L19.0094 19.7757V19.7757L20.9773 19.4189ZM21.6096 20.6429L20.1799 22.0415L20.1876 22.0494L20.1954 22.0572L21.6096 20.6429ZM21.6669 20.7002L20.2527 22.1145L20.2535 22.1152L21.6669 20.7002ZM21.8051 20.9068L19.9575 21.6726L19.9575 21.6726L21.8051 20.9068ZM21.8051 21.3941L23.6526 22.16L23.6526 22.16L21.8051 21.3941ZM21.6669 21.6007L20.2535 20.1857L20.2519 20.1872L21.6669 21.6007ZM21.4596 21.7396L22.2255 23.5871L22.2255 23.5871L21.4596 21.7396ZM20.9722 21.7396L20.2063 23.5871L20.2063 23.5871L20.9722 21.7396ZM20.7653 21.6011L19.3499 23.0141L19.3503 23.0145L20.7653 21.6011ZM20.7162 21.5519L22.1317 20.1389L22.1233 20.1306L22.1149 20.1224L20.7162 21.5519ZM20.7084 21.5442L22.107 20.1146L22.1069 20.1145L20.7084 21.5442ZM19.4843 20.9119L19.8412 18.9439H19.8412L19.4843 20.9119ZM18.1212 21.0721L18.9132 22.9086L18.9245 22.9036L18.1212 21.0721ZM17.0925 21.9324L15.425 20.8281L15.425 20.8281L17.0925 21.9324ZM16.7018 23.2206L14.7018 23.2126L14.7018 23.2165L16.7018 23.2206ZM16.7018 23.2245L14.7018 23.2205V23.2245H16.7018ZM16.5154 23.8136L17.9296 25.2278L17.9297 25.2278L16.5154 23.8136ZM15.6155 23.8136L14.2013 25.2278L14.2013 25.2278L15.6155 23.8136ZM15.4291 23.29H17.4291V23.2783L17.429 23.2667L15.4291 23.29ZM15.4288 23.2666L17.4287 23.2433L17.4285 23.2316L17.4283 23.2198L15.4288 23.2666ZM14.9909 21.9545L16.6176 20.791L16.6176 20.791L14.9909 21.9545ZM13.9202 21.1271L13.1374 22.9675L13.1708 22.9817L13.2047 22.9947L13.9202 21.1271ZM12.5811 20.9773L12.2243 19.0094H12.2243L12.5811 20.9773ZM11.3571 21.6096L9.95853 20.1799L9.95063 20.1876L9.94282 20.1954L11.3571 21.6096ZM11.2998 21.6669L9.88554 20.2527L9.88478 20.2535L11.2998 21.6669ZM11.0932 21.8051L11.8591 23.6526L11.8591 23.6526L11.0932 21.8051ZM10.6059 21.8051L9.83996 23.6526L9.83997 23.6526L10.6059 21.8051ZM10.3993 21.6669L11.8143 20.2535L11.8128 20.2519L10.3993 21.6669ZM10.2604 21.4596L8.41285 22.2255L8.41286 22.2255L10.2604 21.4596ZM10.2604 20.9722L8.41286 20.2063L8.41285 20.2063L10.2604 20.9722ZM10.3989 20.7653L8.98597 19.3498L8.98549 19.3503L10.3989 20.7653ZM10.4481 20.7162L11.861 22.1317L11.8694 22.1233L11.8778 22.1148L10.4481 20.7162ZM10.4558 20.7084L11.8855 22.1069L11.8855 22.1069L10.4558 20.7084ZM11.0881 19.4843L9.12023 19.1275L11.0881 19.4843ZM10.9279 18.1212L9.09142 18.9132L9.09637 18.9245L10.9279 18.1212ZM10.0676 17.0925L11.1719 15.425L11.1719 15.425L10.0676 17.0925ZM8.77944 16.7018L8.78742 14.7018H8.77944V16.7018ZM8.18639 16.5154L6.77217 17.9296L6.77218 17.9296L8.18639 16.5154ZM8.18639 15.6155L9.6006 17.0297L9.6006 17.0297L8.18639 15.6155ZM8.71 15.4291V17.4291H8.72167L8.73334 17.429L8.71 15.4291ZM8.73338 15.4288L8.75673 17.4287L8.76844 17.4285L8.78016 17.4283L8.73338 15.4288ZM10.0455 14.9909L8.88204 13.3641L8.88204 13.3641L10.0455 14.9909ZM10.8729 13.9202L9.03247 13.1374L9.01825 13.1708L9.00526 13.2047L10.8729 13.9202ZM11.0227 12.5811L12.9906 12.2243V12.2243L11.0227 12.5811ZM10.3904 11.3571L11.8201 9.95853L11.8124 9.95064L11.8046 9.94284L10.3904 11.3571ZM10.3331 11.2998L11.7473 9.88555L11.7465 9.88478L10.3331 11.2998ZM10.1949 11.0932L8.3474 11.8591L8.3474 11.8591L10.1949 11.0932ZM10.1949 10.6059L8.3474 9.83997L8.3474 9.83998L10.1949 10.6059ZM10.3331 10.3993L11.7465 11.8143L11.7481 11.8127L10.3331 10.3993ZM10.5404 10.2604L9.77453 8.41285L9.77451 8.41286L10.5404 10.2604ZM11.0278 10.2604L11.7937 8.41286L11.7937 8.41285L11.0278 10.2604ZM11.2347 10.3989L12.6502 8.98595L12.6497 8.9855L11.2347 10.3989ZM11.2838 10.4481L9.86831 11.861L9.87674 11.8695L9.88527 11.8778L11.2838 10.4481ZM11.2916 10.4558L12.6902 9.02605L12.6901 9.026L11.2916 10.4558ZM12.5157 11.0881L12.1588 13.0561H12.1588L12.5157 11.0881ZM13.6943 10.9998L13.3966 9.02205L13.2185 9.04886L13.048 9.10707L13.6943 10.9998ZM13.9394 10.93L13.1515 9.09177L13.1515 9.09177L13.9394 10.93ZM14.9729 10.0676L13.3055 8.96332L13.3055 8.96332L14.9729 10.0676ZM15.3636 8.77944L17.3636 8.78742V8.77944H15.3636ZM22.0545 18.4545L22.8424 16.6162L21.247 20.2843L22.0545 18.4545ZM22.9694 18.8583L24.7991 19.6659L25.6067 17.8361L23.7769 17.0286L22.9694 18.8583ZM22.9737 18.8485L22.1858 20.6868L24.0241 21.4746L24.812 19.6364L22.9737 18.8485ZM23.1021 18.6945L24.2064 20.362L24.2064 20.362L23.1021 18.6945ZM23.2926 18.6364V16.6364H23.2845L23.2765 16.6364L23.2926 18.6364ZM25.2278 17.8642L23.8136 16.45L23.8136 16.45L25.2278 17.8642ZM25.2278 14.1358L23.8136 15.55L23.8136 15.55L25.2278 14.1358ZM23.2272 13.3636L23.2118 15.3636L23.2195 15.3636H23.2272V13.3636ZM23.0367 13.3055L24.141 11.638L24.141 11.638L23.0367 13.3055ZM22.9585 13.2346L21.0197 13.7253L21.1282 14.1543L21.4077 14.4975L22.9585 13.2346ZM22.904 13.0762L24.7337 12.2687L24.7337 12.2687L22.904 13.0762ZM22.8798 12.8725L20.9119 12.5157L20.9119 12.5157L22.8798 12.8725ZM22.9714 12.6928L21.5572 11.2786L21.5419 11.2939L21.5269 11.3095L22.9714 12.6928ZM23.0153 12.6489L21.6016 11.2342L21.6011 11.2347L23.0153 12.6489ZM23.5871 11.7937L21.7396 11.0278L21.7396 11.0278L23.5871 11.7937ZM23.5871 9.77452L25.4347 9.00864V9.00864L23.5871 9.77452ZM23.0149 8.91886L21.6005 10.3329L21.6015 10.3339L23.0149 8.91886ZM22.16 8.3474L22.9259 6.49986V6.49986L22.16 8.3474ZM20.1409 8.3474L20.9068 10.1949L20.9068 10.1949L20.1409 8.3474ZM19.2852 8.91965L20.6994 10.3339L20.6999 10.3334L19.2852 8.91965ZM19.2417 8.96319L20.6249 10.4077L20.6406 10.3927L20.6559 10.3774L19.2417 8.96319ZM19.0621 9.05477L19.4189 11.0227L19.4189 11.0227L19.0621 9.05477ZM18.8583 9.03054L19.6659 7.20081L19.6561 7.1965L19.6463 7.19229L18.8583 9.03054ZM18.8485 9.02631L19.6364 7.18806L19.6363 7.18803L18.8485 9.02631ZM18.6945 8.89787L17.0271 10.0022L17.0271 10.0022L18.6945 8.89787ZM18.6364 8.70744H16.6364V8.71549L16.6364 8.72355L18.6364 8.70744ZM17.8642 6.77217L16.45 8.18639L17.8642 6.77217ZM14.1358 6.77217L12.7216 5.35796L12.7216 5.35796L14.1358 6.77217ZM13.3636 8.77277L15.3636 8.7882L15.3636 8.78048V8.77277H13.3636ZM13.3055 8.96332L11.638 7.85901L11.638 7.85902L13.3055 8.96332ZM13.2346 9.04148L13.7254 10.9803L14.1543 10.8718L14.4975 10.5924L13.2346 9.04148ZM13.0762 9.09605L12.2687 7.26632L12.2687 7.26632L13.0762 9.09605ZM12.8725 9.12023L12.5157 11.0881L12.5157 11.0881L12.8725 9.12023ZM12.6928 9.02863L11.2786 10.4428L11.2939 10.4581L11.3096 10.4731L12.6928 9.02863ZM12.6493 8.9851L11.2343 10.3985L11.2351 10.3993L12.6493 8.9851ZM11.7937 8.41286L11.0278 10.2604L11.0278 10.2604L11.7937 8.41286ZM9.77452 8.41286L9.00864 6.56531L9.00864 6.56531L9.77452 8.41286ZM8.91926 8.98471L10.333 10.3994L10.334 10.3984L8.91926 8.98471ZM8.3474 9.83998L10.1949 10.6059L10.1949 10.6059L8.3474 9.83998ZM8.3474 11.8591L10.1949 11.0932L10.1949 11.0932L8.3474 11.8591ZM8.91965 12.7148L10.3339 11.3006L10.3331 11.2998L8.91965 12.7148ZM8.96317 12.7583L10.4076 11.375L10.3927 11.3594L10.3774 11.3441L8.96317 12.7583ZM9.05477 12.9379L11.0227 12.5811L11.0227 12.5811L9.05477 12.9379ZM9.03059 13.1417L7.20087 12.3342L7.20085 12.3342L9.03059 13.1417ZM9.00692 13.2003L7.12985 12.5099H7.12985L9.00692 13.2003ZM8.88204 13.3641L7.71856 11.7374L7.71854 11.7374L8.88204 13.3641ZM8.6945 13.4291V15.4291H8.74042L8.78629 15.427L8.6945 13.4291ZM6.77217 14.2013L5.35796 12.787L5.35796 12.7871L6.77217 14.2013ZM6.77217 17.9296L8.18639 16.5154L6.77217 17.9296ZM8.77289 18.7018L8.789 16.7019L8.78095 16.7018H8.77289V18.7018ZM8.96332 18.76L7.859 20.4275L7.85903 20.4275L8.96332 18.76ZM9.09172 18.914L7.25343 19.7018L7.25767 19.7117L7.262 19.7215L9.09172 18.914ZM9.09605 18.9238L10.9258 18.1162L10.9258 18.1162L9.09605 18.9238ZM9.12023 19.1275L11.0881 19.4844L11.0881 19.4843L9.12023 19.1275ZM9.02864 19.3071L10.4429 20.7214L10.4582 20.706L10.4732 20.6903L9.02864 19.3071ZM8.98471 19.3511L10.3984 20.7658L10.3989 20.7653L8.98471 19.3511ZM8.41286 20.2063L10.2604 20.9722L10.2604 20.9722L8.41286 20.2063ZM8.41286 22.2255L6.56531 22.9914L6.56531 22.9914L8.41286 22.2255ZM8.98432 23.0804L10.3993 21.6669L10.3983 21.6659L8.98432 23.0804ZM9.83998 23.6526L10.6059 21.8051L10.6059 21.805L9.83998 23.6526ZM11.8591 23.6526L11.0932 21.8051H11.0932L11.8591 23.6526ZM12.7148 23.0804L11.3005 21.6661L11.3001 21.6666L12.7148 23.0804ZM12.7583 23.0368L11.375 21.5924L11.3594 21.6073L11.3441 21.6226L12.7583 23.0368ZM12.9379 22.9452L12.5811 20.9773L12.5811 20.9773L12.9379 22.9452ZM13.1417 22.9694L12.3341 24.7991L12.3343 24.7992L13.1417 22.9694ZM13.2003 22.9931L13.8906 21.116L13.8906 21.116L13.2003 22.9931ZM13.3641 23.118L11.7374 24.2814L11.7374 24.2815L13.3641 23.118ZM13.4291 23.3055H15.4291V23.2596L15.427 23.2137L13.4291 23.3055ZM14.2013 25.2278L15.6155 23.8136L15.6155 23.8136L14.2013 25.2278ZM17.9296 25.2278L16.5154 23.8136L16.5154 23.8136L17.9296 25.2278ZM18.7018 23.2271L16.7019 23.211L16.7018 23.2191V23.2271H18.7018ZM18.76 23.0367L20.4275 24.141L20.4275 24.141L18.76 23.0367ZM18.914 22.9083L19.7018 24.7466L19.7116 24.7424L19.7214 24.7381L18.914 22.9083ZM18.9238 22.904L19.7312 24.7337L19.7313 24.7337L18.9238 22.904ZM19.1275 22.8798L19.4843 20.9119H19.4843L19.1275 22.8798ZM19.3072 22.9714L20.7213 21.5571L20.7061 21.5418L20.6905 21.5269L19.3072 22.9714ZM19.3507 23.0149L20.7657 21.6015L20.7649 21.6006L19.3507 23.0149ZM20.2063 23.5871L19.4405 25.4347H19.4405L20.2063 23.5871ZM22.2255 23.5871L22.9914 25.4347L22.9914 25.4347L22.2255 23.5871ZM23.0807 23.0153L21.667 21.6006L21.666 21.6016L23.0807 23.0153ZM23.6526 22.16L21.8051 21.3941L21.805 21.3942L23.6526 22.16ZM23.6526 20.1409L21.8051 20.9068L21.8051 20.9068L23.6526 20.1409ZM23.0804 19.2852L21.6662 20.6995L21.6669 20.7002L23.0804 19.2852ZM23.0368 19.2417L21.5922 20.6248L21.6072 20.6405L21.6226 20.6559L23.0368 19.2417ZM22.9452 19.0621L20.9773 19.4189L20.9773 19.4189L22.9452 19.0621ZM16 6C15.3008 6 14.6302 6.27776 14.1358 6.77217L16.9642 9.6006C16.7085 9.85633 16.3617 10 16 10V6ZM17.8642 6.77217C17.3698 6.27776 16.6992 6 16 6V10C15.6383 10 15.2915 9.85633 15.0358 9.60061L17.8642 6.77217ZM18.6364 8.63636C18.6364 7.93716 18.3586 7.26659 17.8642 6.77218L15.0358 9.6006C14.78 9.34487 14.6364 8.99802 14.6364 8.63636H18.6364ZM18.6364 8.71V8.63636H14.6364V8.71H18.6364ZM18.6364 8.70997L18.6364 8.70598L14.6364 8.71402L14.6364 8.71801L18.6364 8.70997ZM18.6945 8.89787C18.6569 8.84096 18.6366 8.77427 18.6364 8.70601L14.6364 8.72196C14.6398 9.57031 14.8911 10.3992 15.3596 11.1065L18.6945 8.89787ZM18.8477 9.026C18.7853 8.99908 18.7321 8.95456 18.6945 8.89787L15.3596 11.1065C15.8262 11.811 16.4878 12.3644 17.2637 12.699L18.8477 9.026ZM19.0621 9.05477C18.9935 9.0672 18.9228 9.05889 18.859 9.03092L17.2524 12.6941C18.0452 13.0418 18.9238 13.1451 19.7757 12.9906L19.0621 9.05477ZM19.2444 8.96063C19.1945 9.00942 19.1311 9.04227 19.0621 9.05477L19.7757 12.9906C20.6308 12.8356 21.42 12.428 22.0415 11.8201L19.2444 8.96063ZM19.286 8.91887L19.2287 8.97615L22.0572 11.8046L22.1144 11.7473L19.286 8.91887ZM20.1409 8.34741C19.8208 8.48007 19.5301 8.67452 19.2852 8.91965L22.1152 11.7465C21.9886 11.8733 21.8382 11.9739 21.6727 12.0425L20.1409 8.34741ZM21.1505 8.14644C20.804 8.14644 20.4609 8.21473 20.1409 8.3474L21.6726 12.0425C21.5071 12.1111 21.3297 12.1464 21.1505 12.1464V8.14644ZM22.16 8.3474C21.84 8.21473 21.4969 8.14644 21.1505 8.14644V12.1464C20.9712 12.1464 20.7938 12.1111 20.6283 12.0425L22.16 8.3474ZM23.0157 8.91965C22.7708 8.67452 22.4801 8.48008 22.16 8.34741L20.6282 12.0425C20.4627 11.9739 20.3123 11.8733 20.1857 11.7465L23.0157 8.91965ZM23.5871 9.7745C23.4531 9.45123 23.2567 9.16044 23.0141 8.91809L20.1872 11.7481C20.063 11.6239 19.962 11.4751 19.8921 11.3063L23.5871 9.7745ZM23.7881 10.7841C23.7881 10.4376 23.7198 10.0946 23.5871 9.77452L19.8921 11.3063C19.8234 11.1407 19.7881 10.9633 19.7881 10.7841H23.7881ZM23.5871 11.7937C23.7198 11.4736 23.7881 11.1305 23.7881 10.7841H19.7881C19.7881 10.6049 19.8234 10.4274 19.8921 10.2619L23.5871 11.7937ZM23.0145 12.6497C23.2584 12.4061 23.4538 12.1154 23.5871 11.7937L19.8921 10.2619C19.9614 10.0947 20.0621 9.9451 20.1876 9.81972L23.0145 12.6497ZM22.9649 12.6992L23.014 12.6502L20.1881 9.81926L20.139 9.86831L22.9649 12.6992ZM22.974 12.6902L22.9817 12.6823L20.1222 9.88526L20.1145 9.89314L22.974 12.6902ZM22.8798 12.8725C22.8922 12.8037 22.9251 12.7402 22.974 12.6902L20.1145 9.89312C19.5067 10.5145 19.099 11.3036 18.9439 12.1588L22.8798 12.8725ZM22.8929 13.048C22.8737 12.9917 22.8691 12.9313 22.8798 12.8725L18.9439 12.1588C18.8113 12.8902 18.8687 13.6411 19.1075 14.3406L22.8929 13.048ZM22.9082 13.1515C22.9419 13.2301 22.9653 13.3125 22.978 13.3966L19.0225 13.992C19.0605 14.2444 19.1306 14.4915 19.2317 14.7273L22.9082 13.1515ZM23.0367 13.3055C22.9798 13.2678 22.9351 13.2143 22.9082 13.1515L19.2317 14.7272C19.5659 15.507 20.1208 16.172 20.8281 16.6404L23.0367 13.3055ZM23.2285 13.3636C23.1603 13.3634 23.0936 13.3431 23.0367 13.3055L20.8281 16.6404C21.5354 17.1089 22.3642 17.3602 23.2126 17.3636L23.2285 13.3636ZM23.2286 13.3636L23.2246 13.3636L23.2165 17.3636L23.2205 17.3636L23.2286 13.3636ZM23.3636 13.3636H23.2245V17.3636H23.3636V13.3636ZM25.2278 14.1358C24.7334 13.6414 24.0628 13.3636 23.3636 13.3636V17.3636C23.002 17.3636 22.6551 17.22 22.3994 16.9642L25.2278 14.1358ZM26 16C26 15.3008 25.7222 14.6302 25.2278 14.1358L22.3994 16.9642C22.1437 16.7085 22 16.3617 22 16H26ZM25.2278 17.8642C25.7222 17.3698 26 16.6992 26 16H22C22 15.6383 22.1437 15.2915 22.3994 15.0358L25.2278 17.8642ZM23.3636 18.6364C24.0628 18.6364 24.7334 18.3586 25.2278 17.8642L22.3994 15.0358C22.6551 14.78 23.002 14.6364 23.3636 14.6364V18.6364ZM23.2898 18.6364L23.3634 18.6364L23.3639 14.6364L23.2902 14.6364L23.2898 18.6364ZM23.294 18.6364L23.298 18.6363L23.282 14.6364L23.278 14.6364L23.294 18.6364ZM23.1021 18.6945C23.159 18.6569 23.2257 18.6366 23.294 18.6364L23.278 14.6364C22.4297 14.6398 21.6008 14.8911 20.8935 15.3596L23.1021 18.6945ZM22.974 18.8477C23.0009 18.7853 23.0454 18.7321 23.1021 18.6945L20.8935 15.3596C20.189 15.8262 19.6356 16.4878 19.301 17.2637L22.974 18.8477ZM22.9452 19.0621C22.9328 18.9935 22.9411 18.9228 22.9691 18.859L19.3059 17.2524C18.9582 18.0452 18.8549 18.9238 19.0094 19.7757L22.9452 19.0621ZM23.0394 19.2444C22.9906 19.1945 22.9577 19.1311 22.9452 19.0621L19.0094 19.7757C19.1644 20.6308 19.572 21.42 20.1799 22.0415L23.0394 19.2444ZM23.0811 19.286L23.0238 19.2287L20.1954 22.0572L20.2527 22.1145L23.0811 19.286ZM23.6526 20.1409C23.5199 19.8208 23.3255 19.5301 23.0803 19.2852L20.2535 22.1152C20.1267 21.9886 20.0261 21.8382 19.9575 21.6726L23.6526 20.1409ZM23.8536 21.1505C23.8536 20.804 23.7853 20.4609 23.6526 20.1409L19.9575 21.6726C19.8889 21.5071 19.8536 21.3297 19.8536 21.1505H23.8536ZM23.6526 22.16C23.7853 21.84 23.8536 21.4969 23.8536 21.1505H19.8536C19.8536 20.9713 19.8889 20.7938 19.9575 20.6283L23.6526 22.16ZM23.0804 23.0157C23.3255 22.7708 23.5199 22.4801 23.6526 22.16L19.9575 20.6282C20.0261 20.4627 20.1267 20.3123 20.2535 20.1857L23.0804 23.0157ZM22.2255 23.5871C22.5488 23.4531 22.8396 23.2567 23.0819 23.0141L20.2519 20.1872C20.3761 20.063 20.5249 19.962 20.6937 19.8921L22.2255 23.5871ZM21.2159 23.7881C21.5624 23.7881 21.9054 23.7198 22.2255 23.5871L20.6937 19.892C20.8593 19.8234 21.0367 19.7881 21.2159 19.7881V23.7881ZM20.2063 23.5871C20.5264 23.7198 20.8695 23.7881 21.2159 23.7881V19.7881C21.3951 19.7881 21.5726 19.8234 21.7381 19.8921L20.2063 23.5871ZM19.3503 23.0145C19.5939 23.2584 19.8847 23.4538 20.2063 23.5871L21.7381 19.8921C21.9053 19.9614 22.0549 20.0621 22.1803 20.1877L19.3503 23.0145ZM19.3008 22.9649L19.3499 23.0141L22.1807 20.1881L22.1317 20.1389L19.3008 22.9649ZM19.3097 22.9738L19.3176 22.9815L22.1149 20.1224L22.107 20.1146L19.3097 22.9738ZM19.1275 22.8798C19.1963 22.8922 19.2598 22.9251 19.3098 22.974L22.1069 20.1145C21.4855 19.5067 20.6964 19.099 19.8412 18.9439L19.1275 22.8798ZM18.9245 22.9036C18.9883 22.8757 19.059 22.8673 19.1275 22.8798L19.8412 18.9439C18.9892 18.7895 18.1106 18.8928 17.3178 19.2405L18.9245 22.9036ZM18.76 23.0367C18.7975 22.98 18.8508 22.9355 18.9132 22.9085L17.3292 19.2356C16.5533 19.5702 15.8916 20.1235 15.425 20.8281L18.76 23.0367ZM18.7018 23.2285C18.7021 23.1603 18.7223 23.0936 18.76 23.0367L15.425 20.8281C14.9566 21.5354 14.7052 22.3642 14.7018 23.2126L18.7018 23.2285ZM18.7018 23.2286L18.7018 23.2246L14.7018 23.2165L14.7018 23.2205L18.7018 23.2286ZM18.7018 23.3636V23.2245H14.7018V23.3636H18.7018ZM17.9297 25.2278C18.4241 24.7334 18.7018 24.0628 18.7018 23.3636H14.7018C14.7018 23.002 14.8455 22.6551 15.1012 22.3994L17.9297 25.2278ZM16.0655 26C16.7647 26 17.4352 25.7222 17.9296 25.2278L15.1012 22.3994C15.357 22.1437 15.7038 22 16.0655 22V26ZM14.2013 25.2278C14.6957 25.7222 15.3662 26 16.0655 26V22C16.4271 22 16.774 22.1437 17.0297 22.3994L14.2013 25.2278ZM13.4291 23.3636C13.4291 24.0628 13.7069 24.7334 14.2013 25.2278L17.0297 22.3994C17.2854 22.6551 17.4291 23.002 17.4291 23.3636H13.4291ZM13.4291 23.29V23.3636H17.4291V23.29H13.4291ZM13.429 23.29L13.4292 23.3133L17.429 23.2667L17.4287 23.2433L13.429 23.29ZM13.3641 23.118C13.405 23.1751 13.4277 23.2432 13.4294 23.3134L17.4283 23.2198C17.4079 22.3472 17.1254 21.5009 16.6176 20.791L13.3641 23.118ZM13.2047 22.9947C13.2687 23.0193 13.3242 23.0621 13.3641 23.118L16.6176 20.791C16.1212 20.0969 15.4318 19.5645 14.6357 19.2595L13.2047 22.9947ZM12.9379 22.9452C13.0052 22.933 13.0745 22.9408 13.1374 22.9675L14.7031 19.2867C13.922 18.9544 13.0603 18.8578 12.2243 19.0094L12.9379 22.9452ZM12.7556 23.0394C12.8055 22.9906 12.8689 22.9577 12.9379 22.9452L12.2243 19.0094C11.3692 19.1644 10.58 19.572 9.95853 20.1799L12.7556 23.0394ZM12.714 23.0811L12.7713 23.0238L9.94282 20.1954L9.88554 20.2527L12.714 23.0811ZM11.8591 23.6526C12.1792 23.5199 12.4699 23.3255 12.7148 23.0804L9.88478 20.2535C10.0114 20.1267 10.1618 20.0261 10.3273 19.9575L11.8591 23.6526ZM10.8495 23.8536C11.196 23.8536 11.5391 23.7853 11.8591 23.6526L10.3274 19.9575C10.4929 19.8889 10.6703 19.8536 10.8495 19.8536V23.8536ZM9.83997 23.6526C10.16 23.7853 10.5031 23.8536 10.8495 23.8536V19.8536C11.0287 19.8536 11.2062 19.8889 11.3717 19.9575L9.83997 23.6526ZM8.98431 23.0803C9.22916 23.3255 9.51992 23.5199 9.83996 23.6526L11.3718 19.9575C11.5373 20.0261 11.6877 20.1267 11.8143 20.2535L8.98431 23.0803ZM8.41286 22.2255C8.54688 22.5488 8.74328 22.8396 8.98588 23.0819L11.8128 20.2519C11.937 20.3761 12.038 20.5249 12.1079 20.6937L8.41286 22.2255ZM8.21189 21.2159C8.21189 21.5624 8.28018 21.9054 8.41285 22.2255L12.108 20.6937C12.1766 20.8593 12.2119 21.0367 12.2119 21.2159H8.21189ZM8.41285 20.2063C8.28018 20.5264 8.21189 20.8694 8.21189 21.2159H12.2119C12.2119 21.3951 12.1766 21.5726 12.108 21.7381L8.41285 20.2063ZM8.98549 19.3503C8.74161 19.5939 8.5462 19.8847 8.41286 20.2063L12.1079 21.7381C12.0387 21.9053 11.9379 22.0549 11.8124 22.1803L8.98549 19.3503ZM9.0351 19.3008L8.98597 19.3498L11.8119 22.1808L11.861 22.1317L9.0351 19.3008ZM9.02606 19.3098L9.01834 19.3177L11.8778 22.1148L11.8855 22.1069L9.02606 19.3098ZM9.12023 19.1275C9.10775 19.1963 9.07495 19.2598 9.02605 19.3098L11.8855 22.1069C12.4933 21.4855 12.901 20.6964 13.0561 19.8412L9.12023 19.1275ZM9.09637 18.9245C9.12435 18.9883 9.13266 19.059 9.12023 19.1275L13.0561 19.8412C13.2105 18.9892 13.1072 18.1106 12.7595 17.3178L9.09637 18.9245ZM8.96332 18.76C9.02001 18.7975 9.06454 18.8508 9.09145 18.9132L12.7644 17.3291C12.4298 16.5533 11.8765 15.8916 11.1719 15.425L8.96332 18.76ZM8.77146 18.7018C8.8397 18.7021 8.9064 18.7223 8.96332 18.76L11.1719 15.425C10.4646 14.9566 9.63579 14.7052 8.78742 14.7018L8.77146 18.7018ZM8.63636 18.7018H8.77944V14.7018H8.63636V18.7018ZM6.77218 17.9296C7.26659 18.4241 7.93716 18.7018 8.63636 18.7018V14.7018C8.99802 14.7018 9.34487 14.8455 9.6006 15.1012L6.77218 17.9296ZM6 16.0655C6 16.7647 6.27776 17.4352 6.77217 17.9296L9.60061 15.1012C9.85633 15.357 10 15.7038 10 16.0655H6ZM6.77217 14.2013C6.27776 14.6957 6 15.3663 6 16.0655H10C10 16.4271 9.85633 16.774 9.6006 17.0297L6.77217 14.2013ZM8.63636 13.4291C7.93716 13.4291 7.26659 13.7069 6.77217 14.2013L9.6006 17.0297C9.34487 17.2854 8.99802 17.4291 8.63636 17.4291V13.4291ZM8.71 13.4291H8.63636V17.4291H8.71V13.4291ZM8.71004 13.429L8.68666 13.4292L8.73334 17.429L8.75673 17.4287L8.71004 13.429ZM8.88204 13.3641C8.82492 13.405 8.75683 13.4277 8.68661 13.4294L8.78016 17.4283C9.65277 17.4079 10.4991 17.1254 11.209 16.6176L8.88204 13.3641ZM9.00526 13.2047C8.98072 13.2687 8.93789 13.3242 8.88204 13.3641L11.209 16.6176C11.9031 16.1212 12.4355 15.4318 12.7405 14.6358L9.00526 13.2047ZM9.05477 12.9379C9.06697 13.0052 9.0592 13.0745 9.03247 13.1374L12.7133 14.7031C13.0456 13.922 13.1422 13.0603 12.9906 12.2243L9.05477 12.9379ZM8.96064 12.7556C9.00941 12.8055 9.04227 12.8689 9.05477 12.9379L12.9906 12.2243C12.8356 11.3692 12.428 10.58 11.8201 9.95853L8.96064 12.7556ZM8.91887 12.714L8.97615 12.7713L11.8046 9.94284L11.7473 9.88555L8.91887 12.714ZM8.3474 11.8591C8.48008 12.1792 8.67453 12.4699 8.91964 12.7148L11.7465 9.88478C11.8733 10.0114 11.9739 10.1618 12.0425 10.3273L8.3474 11.8591ZM8.14644 10.8495C8.14644 11.196 8.21473 11.5391 8.3474 11.8591L12.0425 10.3274C12.1111 10.4929 12.1464 10.6703 12.1464 10.8495H8.14644ZM8.3474 9.83998C8.21473 10.16 8.14644 10.5031 8.14644 10.8495H12.1464C12.1464 11.0288 12.1111 11.2062 12.0425 11.3717L8.3474 9.83998ZM8.91965 8.98432C8.67453 9.22917 8.48008 9.51993 8.3474 9.83997L12.0425 11.3717C11.9739 11.5373 11.8733 11.6877 11.7465 11.8143L8.91965 8.98432ZM9.77451 8.41286C9.45123 8.54687 9.16043 8.74327 8.91808 8.98589L11.7481 11.8127C11.6239 11.937 11.4751 12.038 11.3063 12.1079L9.77451 8.41286ZM10.7841 8.21189C10.4376 8.21189 10.0946 8.28018 9.77453 8.41285L11.3063 12.108C11.1407 12.1766 10.9633 12.2119 10.7841 12.2119V8.21189ZM11.7937 8.41285C11.4736 8.28019 11.1306 8.21189 10.7841 8.21189V12.2119C10.6049 12.2119 10.4274 12.1766 10.2619 12.108L11.7937 8.41285ZM12.6497 8.9855C12.4061 8.74163 12.1153 8.5462 11.7937 8.41286L10.2619 12.1079C10.0947 12.0387 9.94511 11.9379 9.81971 11.8124L12.6497 8.9855ZM12.6992 9.03509L12.6502 8.98595L9.81926 11.8119L9.86831 11.861L12.6992 9.03509ZM12.6901 9.026L12.6822 9.01829L9.88527 11.8778L9.89316 11.8855L12.6901 9.026ZM12.8725 9.12023C12.8037 9.10775 12.7402 9.07495 12.6902 9.02605L9.89312 11.8855C10.5144 12.4933 11.3036 12.901 12.1588 13.0561L12.8725 9.12023ZM13.048 9.10707C12.9917 9.12629 12.9313 9.1309 12.8725 9.12023L12.1588 13.0561C12.8902 13.1887 13.6411 13.1313 14.3406 12.8925L13.048 9.10707ZM13.1515 9.09177C13.2301 9.05809 13.3125 9.03471 13.3966 9.02205L13.992 12.9775C14.2444 12.9395 14.4915 12.8694 14.7273 12.7683L13.1515 9.09177ZM13.3055 8.96332C13.2678 9.02023 13.2143 9.06488 13.1515 9.09177L14.7272 12.7683C15.507 12.4341 16.172 11.8792 16.6404 11.1719L13.3055 8.96332ZM13.3637 8.77146C13.3634 8.8397 13.3432 8.90639 13.3055 8.96332L16.6404 11.1719C17.1088 10.4646 17.3602 9.63579 17.3636 8.78742L13.3637 8.77146ZM13.3636 8.63636V8.77944H17.3636V8.63636H13.3636ZM14.1358 6.77217C13.6414 7.26659 13.3636 7.93716 13.3636 8.63636H17.3636C17.3636 8.99802 17.22 9.34487 16.9642 9.6006L14.1358 6.77217ZM21.247 20.2843L22.1619 20.688L23.7769 17.0286L22.862 16.6248L21.247 20.2843ZM23.7615 17.0102L22.8424 16.6162L21.2666 20.2928L22.1858 20.6868L23.7615 17.0102ZM21.9978 17.0271C21.6157 17.2801 21.3159 17.6394 21.1354 18.0606L24.812 19.6364C24.6852 19.9321 24.4747 20.1843 24.2064 20.362L21.9978 17.0271ZM23.2765 16.6364C22.8215 16.6401 22.3773 16.7758 21.9978 17.0271L24.2064 20.362C23.94 20.5385 23.6281 20.6337 23.3087 20.6363L23.2765 16.6364ZM23.3636 16.6364H23.2926V20.6364H23.3636V16.6364ZM23.8136 16.45C23.6943 16.5693 23.5324 16.6364 23.3636 16.6364V20.6364C24.5933 20.6364 25.7726 20.1479 26.642 19.2784L23.8136 16.45ZM24 16C24 16.1688 23.933 16.3306 23.8136 16.45L26.642 19.2784C27.5115 18.4089 28 17.2296 28 16H24ZM23.8136 15.55C23.933 15.6694 24 15.8312 24 16H28C28 14.7704 27.5115 13.5911 26.642 12.7216L23.8136 15.55ZM23.3636 15.3636C23.5324 15.3636 23.6943 15.4307 23.8136 15.55L26.642 12.7216C25.7726 11.8521 24.5933 11.3636 23.3636 11.3636V15.3636ZM23.2272 15.3636H23.3636V11.3636H23.2272V15.3636ZM21.9324 14.9729C22.312 15.2244 22.7566 15.3601 23.2118 15.3636L23.2427 11.3637C23.5623 11.3662 23.8744 11.4614 24.141 11.638L21.9324 14.9729ZM21.4077 14.4975C21.5566 14.6804 21.7333 14.8411 21.9324 14.9729L24.141 11.638C24.2808 11.7306 24.4048 11.8434 24.5094 11.9718L21.4077 14.4975ZM21.0742 13.8837C21.0516 13.8325 21.0334 13.7795 21.0197 13.7253L24.8974 12.7439C24.8563 12.5816 24.8016 12.4226 24.7337 12.2687L21.0742 13.8837ZM20.9119 12.5157C20.8281 12.9777 20.8846 13.4542 21.0742 13.8838L24.7337 12.2687C24.8668 12.5703 24.9065 12.9049 24.8477 13.2293L20.9119 12.5157ZM21.5269 11.3095C21.2082 11.6424 20.9942 12.0618 20.9119 12.5157L24.8477 13.2293C24.7899 13.548 24.6396 13.8425 24.4158 14.0762L21.5269 11.3095ZM21.6011 11.2347L21.5572 11.2786L24.3856 14.1071L24.4295 14.0631L21.6011 11.2347ZM21.7396 11.0278C21.7076 11.105 21.6607 11.1751 21.6016 11.2342L24.429 14.0636C24.8598 13.6332 25.2015 13.1221 25.4347 12.5595L21.7396 11.0278ZM21.7881 10.7841C21.7881 10.8677 21.7716 10.9505 21.7396 11.0278L25.4347 12.5595C25.668 11.9967 25.7881 11.3934 25.7881 10.7841H21.7881ZM21.7396 10.5404C21.7716 10.6177 21.7881 10.7005 21.7881 10.7841H25.7881C25.7881 10.1748 25.668 9.57148 25.4347 9.00864L21.7396 10.5404ZM21.6015 10.3339C21.6606 10.393 21.7076 10.4631 21.7396 10.5404L25.4347 9.00864C25.2014 8.44579 24.8594 7.93445 24.4283 7.50386L21.6015 10.3339ZM21.3941 10.1949C21.4713 10.2269 21.5414 10.2738 21.6005 10.3329L24.4293 7.50485C23.999 7.07442 23.4881 6.73293 22.9259 6.49986L21.3941 10.1949ZM21.1505 10.1464C21.2341 10.1464 21.3169 10.1629 21.3941 10.1949L22.9259 6.49986C22.3631 6.26653 21.7597 6.14644 21.1505 6.14644V10.1464ZM20.9068 10.1949C20.984 10.1629 21.0668 10.1464 21.1505 10.1464V6.14644C20.5412 6.14644 19.9378 6.26653 19.375 6.49986L20.9068 10.1949ZM20.6999 10.3334C20.7593 10.2739 20.8299 10.2268 20.9068 10.1949L19.375 6.49986C18.8121 6.73322 18.3007 7.07548 17.8705 7.50593L20.6999 10.3334ZM20.6559 10.3774L20.6994 10.3339L17.871 7.50545L17.8275 7.54898L20.6559 10.3774ZM19.4189 11.0227C19.8727 10.9404 20.292 10.7265 20.6249 10.4077L17.8585 7.51863C18.0922 7.29485 18.3866 7.14463 18.7052 7.08686L19.4189 11.0227ZM18.0508 10.8603C18.4794 11.0494 18.9558 11.1067 19.4189 11.0227L18.7053 7.08686C19.0307 7.02784 19.3653 7.06815 19.6659 7.20081L18.0508 10.8603ZM18.0606 10.8646L18.0704 10.8688L19.6463 7.19229L19.6364 7.18806L18.0606 10.8646ZM17.0271 10.0022C17.2801 10.3843 17.6394 10.6841 18.0606 10.8646L19.6363 7.18803C19.9321 7.3148 20.1844 7.52528 20.362 7.79357L17.0271 10.0022ZM16.6364 8.72355C16.6401 9.17852 16.7758 9.62272 17.0271 10.0022L20.362 7.79357C20.5385 8.05999 20.6337 8.37187 20.6363 8.69132L16.6364 8.72355ZM16.6364 8.63636V8.70744H20.6364V8.63636H16.6364ZM16.45 8.18639C16.5693 8.30573 16.6364 8.46759 16.6364 8.63636H20.6364C20.6364 7.40672 20.1479 6.22744 19.2784 5.35796L16.45 8.18639ZM16 8C16.1688 8 16.3306 8.06705 16.45 8.18639L19.2784 5.35796C18.4089 4.48847 17.2296 4 16 4V8ZM15.55 8.18639C15.6694 8.06705 15.8312 8 16 8V4C14.7704 4 13.5911 4.48847 12.7216 5.35796L15.55 8.18639ZM15.3636 8.63636C15.3636 8.46759 15.4307 8.30573 15.55 8.18639L12.7216 5.35796C11.8521 6.22745 11.3636 7.40672 11.3636 8.63636H15.3636ZM15.3636 8.77277V8.63636H11.3636V8.77277H15.3636ZM14.9729 10.0676C15.2244 9.68794 15.3601 9.24343 15.3636 8.7882L11.3637 8.75734C11.3662 8.43771 11.4614 8.12561 11.638 7.85901L14.9729 10.0676ZM14.4975 10.5924C14.6806 10.4433 14.8412 10.2666 14.9729 10.0676L11.638 7.85902C11.7305 7.71932 11.8432 7.59527 11.9718 7.49058L14.4975 10.5924ZM13.8838 10.9258C13.8325 10.9484 13.7795 10.9666 13.7254 10.9803L12.7439 7.10261C12.5816 7.14369 12.4227 7.19838 12.2687 7.26632L13.8838 10.9258ZM12.5157 11.0881C12.9777 11.1719 13.4542 11.1154 13.8838 10.9258L12.2687 7.26632C12.5703 7.1332 12.9049 7.0935 13.2293 7.15232L12.5157 11.0881ZM11.3096 10.4731C11.6424 10.7919 12.0618 11.0059 12.5157 11.0881L13.2293 7.15232C13.5479 7.21009 13.8424 7.36033 14.0761 7.58415L11.3096 10.4731ZM11.2351 10.3993L11.2786 10.4428L14.1071 7.61441L14.0635 7.57089L11.2351 10.3993ZM11.0278 10.2604C11.105 10.2924 11.1752 10.3394 11.2343 10.3985L14.0643 7.57168C13.6337 7.14061 13.1224 6.79863 12.5595 6.56531L11.0278 10.2604ZM10.7841 10.2119C10.8677 10.2119 10.9505 10.2284 11.0278 10.2604L12.5595 6.56531C11.9967 6.33199 11.3934 6.21189 10.7841 6.21189V10.2119ZM10.5404 10.2604C10.6177 10.2284 10.7005 10.2119 10.7841 10.2119V6.21189C10.1748 6.21189 9.57149 6.33199 9.00864 6.56531L10.5404 10.2604ZM10.334 10.3984C10.393 10.3393 10.4632 10.2924 10.5404 10.2604L9.00864 6.56531C8.4461 6.79851 7.935 7.14024 7.50455 7.57099L10.334 10.3984ZM10.1949 10.6059C10.227 10.5286 10.2739 10.4585 10.333 10.3994L7.50553 7.57001C7.07478 8.00046 6.73305 8.51155 6.49986 9.0741L10.1949 10.6059ZM10.1464 10.8495C10.1464 10.7659 10.1629 10.6831 10.1949 10.6059L6.49986 9.07409C6.26653 9.63694 6.14644 10.2403 6.14644 10.8495H10.1464ZM10.1949 11.0932C10.1629 11.016 10.1464 10.9332 10.1464 10.8495H6.14644C6.14644 11.4588 6.26653 12.0622 6.49986 12.625L10.1949 11.0932ZM10.3331 11.2998C10.2739 11.2407 10.227 11.1705 10.1949 11.0932L6.49986 12.625C6.73318 13.1878 7.07515 13.6992 7.50622 14.1298L10.3331 11.2998ZM10.3774 11.3441L10.3339 11.3006L7.50543 14.129L7.54895 14.1725L10.3774 11.3441ZM11.0227 12.5811C10.9404 12.1273 10.7264 11.7079 10.4076 11.375L7.51871 14.1416C7.29488 13.9079 7.14464 13.6134 7.08686 13.2947L11.0227 12.5811ZM10.8603 13.9492C11.0499 13.5196 11.1065 13.0431 11.0227 12.5811L7.08686 13.2947C7.02804 12.9704 7.06775 12.6358 7.20087 12.3342L10.8603 13.9492ZM10.884 13.8906C10.8767 13.9104 10.8688 13.9299 10.8603 13.9492L7.20085 12.3342C7.17535 12.392 7.15167 12.4506 7.12985 12.5099L10.884 13.8906ZM10.0455 14.9909C10.4291 14.7166 10.7212 14.3332 10.884 13.8906L7.12985 12.5099C7.24413 12.1992 7.44925 11.93 7.71856 11.7374L10.0455 14.9909ZM8.78629 15.427C9.23896 15.4062 9.67637 15.2549 10.0455 14.9909L7.71854 11.7374C7.97775 11.552 8.28487 11.4458 8.60271 11.4312L8.78629 15.427ZM8.63636 15.4291H8.6945V11.4291H8.63636V15.4291ZM8.18639 15.6155C8.30573 15.4961 8.46759 15.4291 8.63636 15.4291V11.4291C7.40672 11.4291 6.22745 11.9176 5.35796 12.787L8.18639 15.6155ZM8 16.0655C8 15.8967 8.06705 15.7348 8.18639 15.6155L5.35796 12.7871C4.48847 13.6565 4 14.8358 4 16.0655H8ZM8.18639 16.5154C8.06705 16.3961 8 16.2342 8 16.0655H4C4 17.2951 4.48847 18.4744 5.35796 19.3439L8.18639 16.5154ZM8.63636 16.7018C8.46759 16.7018 8.30573 16.6348 8.18639 16.5154L5.35796 19.3439C6.22744 20.2133 7.40672 20.7018 8.63636 20.7018V16.7018ZM8.77289 16.7018H8.63636V20.7018H8.77289V16.7018ZM10.0676 17.0925C9.68817 16.8412 9.24396 16.7055 8.789 16.7019L8.75678 20.7018C8.43734 20.6992 8.12545 20.6039 7.859 20.4275L10.0676 17.0925ZM10.93 18.1261C10.7499 17.7059 10.4507 17.3462 10.0676 17.0925L7.85903 20.4275C7.58979 20.2492 7.37975 19.9965 7.25343 19.7018L10.93 18.1261ZM10.9258 18.1162L10.9214 18.1064L7.262 19.7215L7.26633 19.7313L10.9258 18.1162ZM11.0881 19.4843C11.1719 19.0223 11.1154 18.5458 10.9258 18.1162L7.26632 19.7313C7.13321 19.4297 7.0935 19.0951 7.15232 18.7707L11.0881 19.4843ZM10.4732 20.6903C10.7919 20.3575 11.0059 19.9381 11.0881 19.4844L7.15232 18.7707C7.21009 18.4521 7.36031 18.1576 7.58409 17.9239L10.4732 20.6903ZM10.3989 20.7653L10.4429 20.7214L7.61443 17.8929L7.57051 17.9369L10.3989 20.7653ZM10.2604 20.9722C10.2924 20.895 10.3393 20.8249 10.3984 20.7658L7.57099 17.9364C7.14024 18.3668 6.79851 18.8779 6.56531 19.4405L10.2604 20.9722ZM10.2119 21.2159C10.2119 21.1323 10.2284 21.0495 10.2604 20.9722L6.56531 19.4405C6.33199 20.0033 6.21189 20.6066 6.21189 21.2159H10.2119ZM10.2604 21.4596C10.2284 21.3823 10.2119 21.2995 10.2119 21.2159H6.21189C6.21189 21.8252 6.33199 22.4285 6.56531 22.9914L10.2604 21.4596ZM10.3983 21.6659C10.3393 21.6069 10.2924 21.5368 10.2604 21.4596L6.56531 22.9914C6.79838 23.5536 7.13987 24.0644 7.5703 24.4948L10.3983 21.6659ZM10.6059 21.805C10.5286 21.773 10.4584 21.7261 10.3993 21.6669L7.56932 24.4938C7.99992 24.9249 8.51125 25.2668 9.0741 25.5001L10.6059 21.805ZM10.8495 21.8536C10.7659 21.8536 10.6831 21.8371 10.6059 21.8051L9.0741 25.5001C9.63694 25.7335 10.2403 25.8536 10.8495 25.8536V21.8536ZM11.0932 21.8051C11.016 21.8371 10.9332 21.8536 10.8495 21.8536V25.8536C11.4588 25.8536 12.0622 25.7335 12.625 25.5001L11.0932 21.8051ZM11.3001 21.6666C11.2407 21.726 11.1701 21.7732 11.0932 21.8051L12.625 25.5001C13.1879 25.2668 13.6993 24.9245 14.1295 24.4941L11.3001 21.6666ZM11.3441 21.6226L11.3005 21.6661L14.129 24.4946L14.1725 24.451L11.3441 21.6226ZM12.5811 20.9773C12.1272 21.0596 11.7079 21.2736 11.375 21.5924L14.1416 24.4813C13.9079 24.7051 13.6134 24.8554 13.2948 24.9131L12.5811 20.9773ZM13.9492 21.1397C13.5196 20.9501 13.0431 20.8935 12.5811 20.9773L13.2947 24.9131C12.9704 24.972 12.6358 24.9323 12.3341 24.7991L13.9492 21.1397ZM13.8906 21.116C13.9104 21.1233 13.9299 21.1312 13.9491 21.1396L12.3343 24.7992C12.392 24.8247 12.4506 24.8483 12.51 24.8702L13.8906 21.116ZM14.9909 21.9545C14.7166 21.5709 14.3332 21.2788 13.8906 21.116L12.5099 24.8702C12.1992 24.7559 11.93 24.5507 11.7374 24.2814L14.9909 21.9545ZM15.427 23.2137C15.4062 22.761 15.2549 22.3236 14.9909 21.9545L11.7374 24.2815C11.552 24.0223 11.4458 23.7151 11.4312 23.3973L15.427 23.2137ZM15.4291 23.3636V23.3055H11.4291V23.3636H15.4291ZM15.6155 23.8136C15.4961 23.6943 15.4291 23.5324 15.4291 23.3636H11.4291C11.4291 24.5933 11.9176 25.7726 12.787 26.642L15.6155 23.8136ZM16.0655 24C15.8967 24 15.7348 23.933 15.6155 23.8136L12.787 26.642C13.6565 27.5115 14.8358 28 16.0655 28V24ZM16.5154 23.8136C16.3961 23.933 16.2342 24 16.0655 24V28C17.2951 28 18.4744 27.5115 19.3439 26.642L16.5154 23.8136ZM16.7018 23.3636C16.7018 23.5324 16.6348 23.6943 16.5154 23.8136L19.3439 26.642C20.2133 25.7726 20.7018 24.5933 20.7018 23.3636H16.7018ZM16.7018 23.2271V23.3636H20.7018V23.2271H16.7018ZM17.0925 21.9324C16.8412 22.3118 16.7055 22.756 16.7019 23.211L20.7018 23.2432C20.6992 23.5627 20.6039 23.8746 20.4275 24.141L17.0925 21.9324ZM18.1261 21.07C17.7059 21.2501 17.3462 21.5493 17.0925 21.9324L20.4275 24.141C20.2492 24.4102 19.9966 24.6202 19.7018 24.7466L18.1261 21.07ZM18.1163 21.0742L18.1065 21.0785L19.7214 24.7381L19.7312 24.7337L18.1163 21.0742ZM19.4843 20.9119C19.0223 20.8281 18.5458 20.8846 18.1162 21.0742L19.7313 24.7337C19.4297 24.8668 19.0951 24.9065 18.7707 24.8477L19.4843 20.9119ZM20.6905 21.5269C20.3576 21.2081 19.9382 20.9941 19.4843 20.9119L18.7707 24.8477C18.452 24.7899 18.1576 24.6396 17.9239 24.4158L20.6905 21.5269ZM20.7649 21.6006L20.7213 21.5571L17.893 24.3856L17.9365 24.4291L20.7649 21.6006ZM20.9722 21.7396C20.895 21.7076 20.8248 21.6606 20.7657 21.6015L17.9357 24.4283C18.3663 24.8594 18.8776 25.2014 19.4405 25.4347L20.9722 21.7396ZM21.2159 21.7881C21.1323 21.7881 21.0495 21.7716 20.9722 21.7396L19.4405 25.4347C20.0033 25.668 20.6066 25.7881 21.2159 25.7881V21.7881ZM21.4596 21.7396C21.3823 21.7716 21.2995 21.7881 21.2159 21.7881V25.7881C21.8252 25.7881 22.4285 25.668 22.9914 25.4347L21.4596 21.7396ZM21.666 21.6016C21.607 21.6607 21.5368 21.7076 21.4596 21.7396L22.9914 25.4347C23.5539 25.2015 24.065 24.8598 24.4954 24.429L21.666 21.6016ZM21.805 21.3942C21.773 21.4714 21.7261 21.5415 21.667 21.6006L24.4945 24.43C24.9252 23.9995 25.2669 23.4884 25.5001 22.9259L21.805 21.3942ZM21.8536 21.1505C21.8536 21.2341 21.8371 21.3169 21.8051 21.3941L25.5001 22.9259C25.7335 22.3631 25.8536 21.7597 25.8536 21.1505H21.8536ZM21.8051 20.9068C21.8371 20.984 21.8536 21.0668 21.8536 21.1505H25.8536C25.8536 20.5412 25.7335 19.9378 25.5001 19.375L21.8051 20.9068ZM21.6669 20.7002C21.7261 20.7593 21.773 20.8295 21.8051 20.9068L25.5001 19.375C25.2668 18.8122 24.9249 18.3008 24.4938 17.8702L21.6669 20.7002ZM21.6226 20.6559L21.6662 20.6995L24.4945 17.871L24.451 17.8274L21.6226 20.6559ZM20.9773 19.4189C21.0596 19.8726 21.2735 20.292 21.5922 20.6248L24.4814 17.8585C24.7052 18.0922 24.8554 18.3867 24.9131 18.7052L20.9773 19.4189ZM21.1397 18.0508C20.9501 18.4804 20.8935 18.9569 20.9773 19.4189L24.9131 18.7053C24.972 19.0296 24.9323 19.3642 24.7991 19.6659L21.1397 18.0508ZM16 13C14.3431 13 13 14.3432 13 16H17C17 16.5523 16.5523 17 16 17V13ZM19 16C19 14.3432 17.6569 13 16 13V17C15.4477 17 15 16.5523 15 16H19ZM16 19C17.6569 19 19 17.6569 19 16H15C15 15.4477 15.4477 15 16 15V19ZM13 16C13 17.6569 14.3431 19 16 19V15C16.5523 15 17 15.4477 17 16H13ZM15 16C15 15.4477 15.4477 15 16 15V11C13.2386 11 11 13.2386 11 16H15ZM16 17C15.4477 17 15 16.5523 15 16H11C11 18.7614 13.2386 21 16 21V17ZM17 16C17 16.5523 16.5523 17 16 17V21C18.7614 21 21 18.7614 21 16H17ZM16 15C16.5523 15 17 15.4477 17 16H21C21 13.2386 18.7614 11 16 11V15Z" fill="#1565C0" mask="url(#path-2-inside-1_3_867)"/>
</svg>
