<svg width="14" height="13" viewBox="0 0 14 13" fill="none" xmlns="http://www.w3.org/2000/svg">
<path d="M10.5019 1.24896C9.36341 0.619604 8.05125 0.37729 6.7631 0.558525C5.47803 0.739328 4.2863 1.33189 3.36659 2.2472L1.5999 3.90728V1.6944C1.5999 1.36303 1.33127 1.0944 0.999902 1.0944C0.668531 1.0944 0.399902 1.36303 0.399902 1.6944V5.2944C0.399902 5.62577 0.668531 5.8944 0.999902 5.8944H4.5999C4.93127 5.8944 5.1999 5.62577 5.1999 5.2944C5.1999 4.96303 4.93127 4.6944 4.5999 4.6944H2.51463L4.19476 3.11565C4.19917 3.11151 4.20352 3.1073 4.2078 3.10302C4.94429 2.36778 5.89977 1.89181 6.93029 1.74682C7.96081 1.60183 9.01054 1.79568 9.92131 2.29917C10.8321 2.80265 11.5545 3.58849 11.9799 4.53828C12.4052 5.48807 12.5103 6.55035 12.2794 7.56508C12.0485 8.57981 11.494 9.492 10.6996 10.1642C9.90517 10.8364 8.91379 11.2323 7.87484 11.2921C6.83589 11.3519 5.80565 11.0724 4.93935 10.4958C4.07305 9.91912 3.41761 9.07655 3.0718 8.09502C2.96169 7.78248 2.61906 7.61838 2.30652 7.72849C1.99398 7.83861 1.82988 8.18123 1.93999 8.49377C2.37225 9.72069 3.19155 10.7739 4.27443 11.4947C5.35731 12.2155 6.64511 12.5648 7.9438 12.4901C9.24248 12.4153 10.4817 11.9206 11.4747 11.0803C12.4678 10.24 13.1608 9.09976 13.4495 7.83135C13.7381 6.56294 13.6067 5.23508 13.0751 4.04784C12.5434 2.86061 11.6403 1.87831 10.5019 1.24896Z" fill="#1565C0"/>
</svg>
