<svg width="18" height="18" viewBox="0 0 18 18" fill="none" xmlns="http://www.w3.org/2000/svg">
<path d="M8.9975 0C4.60991 0 0.944843 3.17453 0.243821 7.37389L0.202673 7.62039L2.147 7.95425L2.18815 7.70775C2.72615 4.48497 5.55738 2 8.9975 2C11.055 2 12.8976 2.88985 14.1602 4.29702L12.6563 4.57524L16.1905 8.67507L18 3.58667L16.3544 3.8911C14.7576 1.54022 12.0549 0 8.9975 0Z" fill="#1565C0"/>
<path d="M17.7562 10.6261C17.0552 14.8255 13.3901 18 9.0025 18C5.94507 18 3.24241 16.4598 1.64561 14.1089L0 14.4133L1.80946 9.32493L5.34373 13.4248L3.83982 13.703C5.10244 15.1101 6.94496 16 9.0025 16C12.4426 16 15.2739 13.515 15.8119 10.2922L15.853 10.0458L17.7973 10.3796L17.7562 10.6261Z" fill="#1565C0"/>
</svg>
